<svg xmlns="http://www.w3.org/2000/svg" width="28.535" height="28.536" viewBox="0 0 28.535 28.536">
  <g id="industry" transform="translate(-673.409 -378.496)">
    <path id="Path_8809" data-name="Path 8809" d="M673.409,381.713h22.063a3.248,3.248,0,0,1,1.247-2.526,3.158,3.158,0,0,1,2.2-.685,3.224,3.224,0,0,1,.246,6.407v.3q0,4.228,0,8.456a.533.533,0,0,0,.2.438,7.067,7.067,0,0,1,2.239,7.655,7,7,0,0,1-6.021,5.194,7.319,7.319,0,0,1-8.333-6.571c-.007-.075-.024-.149-.039-.243h-13.8Zm13.8,17.482.106-.911H686.3v-5.5h2.76v1.953a7.438,7.438,0,0,1,9.167-1.492v-8.278l-1.5-.628c-.826.829-1.69,1.7-2.562,2.563a.383.383,0,0,0-.123.444,1.269,1.269,0,0,1-.474,1.433,1.3,1.3,0,0,1-1.483.139,1.223,1.223,0,0,1-.717-1.321.855.855,0,0,0-.379-.983,2.821,2.821,0,0,1-.265-.264.332.332,0,0,0-.37-.108,2.133,2.133,0,0,1-.787,0,.35.35,0,0,0-.371.108q-.982.992-1.974,1.972a.316.316,0,0,0-.09.373,1.358,1.358,0,0,1-.629,1.581,1.38,1.38,0,0,1-1.873-1.9,1.352,1.352,0,0,1,1.561-.615.337.337,0,0,0,.4-.1q.956-.976,1.933-1.931a.383.383,0,0,0,.118-.445,1.27,1.27,0,0,1,.477-1.432,1.3,1.3,0,0,1,1.484-.136,1.222,1.222,0,0,1,.714,1.322c-.141.491.094.718.383.981a3.116,3.116,0,0,1,.263.265.328.328,0,0,0,.371.1,1.965,1.965,0,0,1,.759,0,.392.392,0,0,0,.419-.123c.815-.825,1.639-1.642,2.458-2.463.053-.053.1-.11.135-.152a4.75,4.75,0,0,1-.373-.733c-.077-.246-.209-.285-.435-.284q-10.326.008-20.652,0h-.312V399.2Zm11.1,3.168a4.65,4.65,0,0,1-7.5,0l-1.589.919a6.468,6.468,0,0,0,10.678,0Zm-4.221-9.1a6.4,6.4,0,0,0-5.3,9.2l1.572-.908a4.524,4.524,0,0,1,.227-4.2,4.57,4.57,0,0,1,3.5-2.28Zm.943,0v1.815a4.63,4.63,0,0,1,3.73,6.479l1.572.907A6.4,6.4,0,0,0,695.033,393.266Zm3.211,6.389a3.682,3.682,0,1,0-3.662,3.695A3.692,3.692,0,0,0,698.243,399.655ZM701,381.729a2.3,2.3,0,1,0-2.32,2.289A2.306,2.306,0,0,0,701,381.729Zm-13.8,15.7c.17-.077.349-.1.389-.186a3.65,3.65,0,0,0,.525-2.154,3.861,3.861,0,0,1,0-.631v-.755h-.909Zm2.754-12.036a.458.458,0,1,0-.463-.454A.463.463,0,0,0,689.963,385.4Zm3.215,2.292a.458.458,0,1,0-.447.469A.463.463,0,0,0,693.178,387.689Zm-6.9,1.391a.458.458,0,1,0-.457.459A.463.463,0,0,0,686.274,389.08Z" transform="translate(0)" fill="#f3f6f9"/>
    <path id="Path_8810" data-name="Path 8810" d="M692.722,408.269H690v-7.328h2.726Zm-1.8-6.418v5.487h.886v-5.487Z" transform="translate(-7.386 -9.995)" fill="#f3f6f9"/>
    <path id="Path_8811" data-name="Path 8811" d="M679.445,410.486h-2.726v-4.567h2.726Zm-1.8-3.657v2.726h.886v-2.726Z" transform="translate(-1.474 -12.211)" fill="#f3f6f9"/>
    <path id="Path_8812" data-name="Path 8812" d="M686.093,411.221h-2.726v-3.652h2.726Zm-1.806-2.736v1.8h.885v-1.8Z" transform="translate(-4.434 -12.946)" fill="#f3f6f9"/>
    <path id="Path_8813" data-name="Path 8813" d="M686.455,388.553h-6.4v-.9h6.4Z" transform="translate(-2.958 -4.079)" fill="#f3f6f9"/>
    <path id="Path_8814" data-name="Path 8814" d="M680.032,391.863v-.888h6.415v.888Z" transform="translate(-2.949 -5.557)" fill="#f3f6f9"/>
    <path id="Path_8815" data-name="Path 8815" d="M680.042,394.285h6.4v.888h-6.4Z" transform="translate(-2.954 -7.031)" fill="#f3f6f9"/>
    <path id="Path_8816" data-name="Path 8816" d="M680.046,397.6h6.409v.886h-6.409Z" transform="translate(-2.956 -8.508)" fill="#f3f6f9"/>
    <path id="Path_8817" data-name="Path 8817" d="M677.613,387.649v.885h-.89v-.885Z" transform="translate(-1.476 -4.076)" fill="#f3f6f9"/>
    <path id="Path_8818" data-name="Path 8818" d="M677.613,390.981v.881h-.9v-.881Z" transform="translate(-1.474 -5.559)" fill="#f3f6f9"/>
    <path id="Path_8819" data-name="Path 8819" d="M676.732,394.28h.881v.895h-.881Z" transform="translate(-1.48 -7.029)" fill="#f3f6f9"/>
    <path id="Path_8820" data-name="Path 8820" d="M677.614,397.6v.888h-.893V397.6Z" transform="translate(-1.475 -8.509)" fill="#f3f6f9"/>
    <path id="Path_8821" data-name="Path 8821" d="M712.086,414.465a2.761,2.761,0,1,1-2.742-2.779A2.768,2.768,0,0,1,712.086,414.465Zm-.92-.013a1.84,1.84,0,1,0-1.852,1.836A1.844,1.844,0,0,0,711.166,414.452Z" transform="translate(-14.764 -14.78)" fill="#f3f6f9"/>
  </g>
</svg>
