<svg id="logout" xmlns="http://www.w3.org/2000/svg" width="14.221" height="15.776" viewBox="0 0 14.221 15.776">
  <path id="Path_8762" data-name="Path 8762" d="M1622.2,295.329q0,2.915,0,5.831a1.16,1.16,0,0,1-.711,1.157,1.284,1.284,0,0,1-.507.1q-2.73.01-5.461,0a1.176,1.176,0,0,1-1.22-1.23c-.006-.5,0-1.008,0-1.512a.389.389,0,0,0-.55-.379.34.34,0,0,0-.227.306,18.119,18.119,0,0,0,.038,1.986,1.9,1.9,0,0,0,1.851,1.616q2.838.018,5.677,0a1.968,1.968,0,0,0,1.9-1.9c0-.026,0-.051,0-.077q0-5.924,0-11.847a1.965,1.965,0,0,0-1.531-1.918,1.051,1.051,0,0,0-.229-.022c-1.933,0-3.867.006-5.8,0a1.838,1.838,0,0,0-1.539.791,1.818,1.818,0,0,0-.376,1.12q0,.787,0,1.574a.395.395,0,1,0,.784,0c0-.494,0-.987,0-1.481a1.179,1.179,0,0,1,.927-1.2,1.5,1.5,0,0,1,.337-.029q2.684,0,5.368,0a1.18,1.18,0,0,1,1.267,1.274Q1622.2,292.406,1622.2,295.329Z" transform="translate(-1608.767 -287.443)" fill="#447bc8"/>
  <path id="Path_8763" data-name="Path 8763" d="M1620.533,297.926h8.341c.051,0,.1,0,.154,0a.4.4,0,1,0,.006-.793c-.052,0-.1,0-.154,0h-8.346c.057-.062.091-.1.128-.14.5-.5,1-.993,1.491-1.5a.652.652,0,0,0,.161-.316.33.33,0,0,0-.193-.356.377.377,0,0,0-.409.018.874.874,0,0,0-.127.112q-1.114,1.112-2.226,2.226a.42.42,0,0,0-.006.7l2.247,2.248a.43.43,0,0,0,.438.159.39.39,0,0,0,.215-.614,1.211,1.211,0,0,0-.115-.124l-1.473-1.473C1620.63,298.032,1620.594,297.992,1620.533,297.926Z" transform="translate(-1619.17 -289.656)" fill="#447bc8"/>
</svg>
