<svg xmlns="http://www.w3.org/2000/svg" width="70.62" height="70.585" viewBox="0 0 70.62 70.585">
  <g id="logo" transform="translate(-583.88 -58.08)">
    <path id="Path_487" data-name="Path 487" d="M616.869,58.08v2.251a5.433,5.433,0,0,1-4.193,5.265,28.612,28.612,0,0,0-20.9,20.493,5.132,5.132,0,0,1-4.964,3.831H584.2A35.393,35.393,0,0,1,616.869,58.08Z" transform="translate(-0.229)" fill="#fff"/>
    <path id="Path_488" data-name="Path 488" d="M751.172,90.056h-2.179a5.67,5.67,0,0,1-5.483-4.133A28.612,28.612,0,0,0,722.7,65.735,4.654,4.654,0,0,1,719.17,61.2V58.27A35.4,35.4,0,0,1,751.172,90.056Z" transform="translate(-96.764 -0.136)" fill="#fff"/>
    <path id="Path_489" data-name="Path 489" d="M616.64,220.479v2.64a35.388,35.388,0,0,1-32.76-32.979h2.578A4.933,4.933,0,0,1,591.282,194a28.608,28.608,0,0,0,21.562,21.7A4.9,4.9,0,0,1,616.64,220.479Z" transform="translate(0 -94.453)" fill="#fff"/>
    <path id="Path_490" data-name="Path 490" d="M751.263,190.14a35.389,35.389,0,0,1-32.093,32.925v-2.7a4.963,4.963,0,0,1,3.744-4.821A28.61,28.61,0,0,0,743.9,193.816a4.675,4.675,0,0,1,4.583-3.676Z" transform="translate(-96.764 -94.453)" fill="#fff"/>
    <path id="Path_491" data-name="Path 491" d="M676.1,128.282a21.2,21.2,0,0,1-8.11,16.693V121.69h-7.176v26.976a20.079,20.079,0,0,1-2.52.57V128.863h-7.173v20.318a20.3,20.3,0,0,1-2.358-.564V135.165h-7.173v9.676A21.23,21.23,0,1,1,676.1,128.282Z" transform="translate(-35.59 -35.025)" fill="#fff"/>
  </g>
</svg>
