<svg xmlns="http://www.w3.org/2000/svg" width="19.904" height="19.898" viewBox="0 0 19.904 19.898">
  <path id="Path_8764" data-name="Path 8764" d="M1575.46,296.105a1,1,0,0,1-.706-1.087q.016-7.073.006-14.145c0-.314.092-.459.291-.459s.293.144.293.458v14.184c0,.4.071.468.459.468h12.551c.363,0,.439-.077.439-.447v-3.253c-.075.023-.133.039-.19.058a5.016,5.016,0,0,1-1.6.264h-6.411c-.033,0-.065,0-.1,0a.29.29,0,0,1-.29-.28.286.286,0,0,1,.274-.3c.174-.012.349,0,.524,0h3.552c-.152-.1-.265-.162-.372-.236a1.964,1.964,0,0,1-.391-.285,1.051,1.051,0,0,0-.9-.314c-.738.021-1.476.006-2.215.006a1.609,1.609,0,0,1-.175,0,.294.294,0,0,1-.293-.3.288.288,0,0,1,.311-.279c.336-.005.673,0,1.01,0h1.347c-.037-.066-.057-.11-.084-.149a4.929,4.929,0,0,1-.83-1.866c-.028-.134-.087-.16-.208-.159-.408.005-.817,0-1.224,0a.29.29,0,0,1-.313-.237.267.267,0,0,1,.164-.318.53.53,0,0,1,.208-.026c.408,0,.815,0,1.239,0v-.845h-.489c-.266,0-.531,0-.8,0-.207,0-.338-.122-.334-.3a.3.3,0,0,1,.327-.285c.4,0,.79,0,1.185,0h.218a5.24,5.24,0,0,1,.96-2.088h-2.238a1.285,1.285,0,0,1-.213-.009.242.242,0,0,1-.228-.266.518.518,0,0,1,.188-.28c.054-.043.161-.03.245-.03.867,0,1.735,0,2.6-.006a.543.543,0,0,0,.29-.108c.319-.227.628-.468.961-.718h-3.845a1.388,1.388,0,0,1-.194-.005.285.285,0,0,1-.256-.312.278.278,0,0,1,.284-.265h6.528a5.283,5.283,0,0,1,1.763.322v-1.791h-.209q-1.224,0-2.448,0a.875.875,0,0,1-.945-.943c0-.881,0-1.762,0-2.673h-9.4c-.351,0-.431.082-.431.436q0,1.078,0,2.157c0,.052,0,.1,0,.155a.287.287,0,0,1-.283.287.279.279,0,0,1-.3-.291c0-.842-.013-1.684,0-2.526a.856.856,0,0,1,.811-.8c.033,0,.064,0,.1,0q4.858,0,9.716.006a.529.529,0,0,1,.337.142q1.762,1.743,3.5,3.5a.545.545,0,0,1,.138.34c.013.7.009,1.4,0,2.1a.255.255,0,0,0,.149.258,5.078,5.078,0,0,1,2.473,3.4.875.875,0,0,1,.026.211.257.257,0,0,1-.23.269.263.263,0,0,1-.315-.165,2.105,2.105,0,0,1-.077-.3,4.545,4.545,0,1,0,.11,1.4c.019-.221.141-.35.32-.334s.28.155.261.382a5.121,5.121,0,0,1-.683,2.185c-.039.066-.077.133-.107.186l.706.7c.186-.126.348-.052.513.119q.731.753,1.483,1.484a1.969,1.969,0,0,1,.656,1.026v.428a.215.215,0,0,0-.027.051,1.39,1.39,0,0,1-2.406.637c-.537-.578-1.113-1.12-1.672-1.679-.206-.206-.217-.266-.119-.492l-.711-.708a.509.509,0,0,1-.1.056c-.216.078-.257.23-.255.451.013,1.094.007,2.189,0,3.282a1.353,1.353,0,0,1-.034.326.927.927,0,0,1-.668.64Zm15.641-3.849c.023.026.05.062.081.093.5.5,1.005,1.01,1.512,1.51a.8.8,0,1,0,1.133-1.117c-.513-.521-1.033-1.035-1.551-1.551a.352.352,0,0,0-.063-.046Zm-2.815-12.433-2.526-2.527c0,.719,0,1.474,0,2.231a.274.274,0,0,0,.294.294C1586.811,279.826,1587.567,279.823,1588.286,279.823Zm3.241,11.115-.583-.588-.628.624.588.585Z" transform="translate(-1574.754 -276.207)" fill="#fff"/>
</svg>
