<svg xmlns="http://www.w3.org/2000/svg" width="13.481" height="16.175" viewBox="0 0 13.481 16.175">
  <g id="promotionalnotification" transform="translate(-1201.011 26.405)">
    <path id="Path_8756" data-name="Path 8756" d="M1207.941-26.4c.085.025.171.047.255.076a1.357,1.357,0,0,1,.905,1.3c0,.232.007.463,0,.695a.174.174,0,0,0,.143.2,4.664,4.664,0,0,1,3.063,3.25,4.694,4.694,0,0,1,.162,1.311c0,.779-.021,1.56.027,2.336a4.492,4.492,0,0,0,1.481,3.063c.069.065.142.125.209.192a1,1,0,0,1,.226,1.106.965.965,0,0,1-.926.622c-1.09.008-2.18,0-3.269,0h-.124A2.38,2.38,0,0,1,1209-10.591a2.3,2.3,0,0,1-1.4.356,2.394,2.394,0,0,1-2.2-2.018h-.167c-1.063,0-2.127,0-3.19,0a1,1,0,0,1-.955-1.391,1.265,1.265,0,0,1,.318-.423,4.657,4.657,0,0,0,1.547-2.75,5.881,5.881,0,0,0,.074-.895c.011-.7,0-1.4.009-2.1a4.7,4.7,0,0,1,3.174-4.309.225.225,0,0,0,.189-.263,5.916,5.916,0,0,1,.011-.8,1.321,1.321,0,0,1,1.074-1.189.529.529,0,0,0,.072-.028Zm-.185,13.481v-.008q1.01,0,2.021,0l3.615.008a.371.371,0,0,0,.4-.218c.062-.152.019-.28-.146-.428a5.341,5.341,0,0,1-1.849-4.176c0-.621,0-1.242,0-1.863a4.589,4.589,0,0,0-.04-.629,4.04,4.04,0,0,0-5.042-3.333,4.043,4.043,0,0,0-3,3.813c-.01.758.01,1.516-.008,2.274a5.174,5.174,0,0,1-1.156,3.188c-.219.274-.483.512-.729.763a.341.341,0,0,0-.107.384.338.338,0,0,0,.331.224c.052,0,.105,0,.158,0Zm-1.638.677a1.67,1.67,0,0,0,1.643,1.343,1.66,1.66,0,0,0,1.621-1.343Zm2.3-12.118c0-.025.006-.05.006-.076,0-.226.007-.452-.005-.678a.664.664,0,0,0-.631-.613.654.654,0,0,0-.687.528,7.245,7.245,0,0,0-.007.838Z" transform="translate(0 0)" fill="#447bc8"/>
  </g>
</svg>
