<svg xmlns="http://www.w3.org/2000/svg" width="14.963" height="16.036" viewBox="0 0 14.963 16.036">
  <g id="attachment" transform="translate(-312.533 -650.982)">
    <g id="Group_5061" data-name="Group 5061" transform="translate(-1278.886 305.604)">
      <path id="Path_8757" data-name="Path 8757" d="M1601.926,345.378a4.312,4.312,0,0,1,4.432,4.722,4.069,4.069,0,0,1-1.154,2.5q-2.671,2.727-5.361,5.433c-.817.828-1.623,1.669-2.459,2.48a3.2,3.2,0,0,1-5.312-1.455,3.021,3.021,0,0,1,.787-3.068c1.858-1.881,3.739-3.741,5.622-5.6a2.069,2.069,0,0,1,3.129.184,2.107,2.107,0,0,1-.157,2.621c-.052.059-.1.115-.16.17q-2.58,2.58-5.164,5.157a.8.8,0,0,1-.367.207.479.479,0,0,1-.524-.246.521.521,0,0,1,.03-.6,1.564,1.564,0,0,1,.137-.146q2.569-2.568,5.138-5.136a1.133,1.133,0,0,0,.381-.892.914.914,0,0,0-1.224-.83,1.311,1.311,0,0,0-.505.305q-2.781,2.746-5.546,5.508a2.136,2.136,0,1,0,3.027,3.014q2.948-2.97,5.883-5.95c.618-.626,1.243-1.245,1.852-1.879a3.2,3.2,0,0,0-4.527-4.533q-2.71,2.672-5.406,5.363-1.061,1.052-2.123,2.1a.533.533,0,0,1-.921-.226.544.544,0,0,1,.179-.542q1.24-1.228,2.477-2.459,2.477-2.459,4.954-4.918A4.186,4.186,0,0,1,1601.926,345.378Z" fill="#4d7dc3"/>
    </g>
  </g>
</svg>
