<svg xmlns="http://www.w3.org/2000/svg" width="53.501" height="55.072" viewBox="0 0 53.501 55.072">
  <g id="departmentreports" transform="translate(-679.613 -249.291)">
    <path id="Path_8822" data-name="Path 8822" d="M684.321,295.713V267.437h1.559v28.276h27.079c1.078,0,1.253.182,1.268,1.239a19.325,19.325,0,0,0,.1,2.607,3.844,3.844,0,0,0,4.169,3.213,3.885,3.885,0,0,0,3.587-3.686c.014-.264.015-.53.015-.8q0-18.906,0-37.814c0-1.611.031-3.222-.008-4.831a6.122,6.122,0,0,1,1.628-4.735c-.281-.018-.456-.039-.631-.039q-16.092,0-32.185,0a4.72,4.72,0,0,0-5,5.04q0,3.811,0,7.62v.655h-1.543c-.011-.159-.033-.322-.033-.485,0-2.653-.016-5.307,0-7.96a6.28,6.28,0,0,1,5.412-6.379,7.617,7.617,0,0,1,1.247-.062q18.224-.008,36.448-.009a5.478,5.478,0,0,1,5.674,5.6c.015,1.46.006,2.919,0,4.379,0,.785-.263,1.044-1.069,1.045q-3.838.006-7.676,0h-.7v.762q0,18.736,0,37.472a5.48,5.48,0,0,1-3.74,5.512,5.807,5.807,0,0,1-1.783.285q-16.491.025-32.981.009a5.457,5.457,0,0,1-5.541-5.5c-.013-.739-.01-1.479,0-2.218.009-.651.283-.921.946-.925C681.795,295.708,683.022,295.713,684.321,295.713Zm28.344,1.61H681.157a16.29,16.29,0,0,0,.141,2.392,3.871,3.871,0,0,0,4.075,3.071q14.156.006,28.312,0c.158,0,.317-.023.582-.044C712.726,301.186,712.545,299.307,712.666,297.323Zm18.816-38.616a1.211,1.211,0,0,0,.049-.237c0-1.305.034-2.613-.018-3.916a3.853,3.853,0,0,0-3.527-3.666,3.794,3.794,0,0,0-4.216,3.261,43.774,43.774,0,0,0-.077,4.474c0,.028.046.057.07.083Z" fill="#3a72c2"/>
    <path id="Path_8823" data-name="Path 8823" d="M706.344,273.111v2.352h9.783c1,0,1.21.213,1.211,1.189,0,.927,0,1.854,0,2.812a4.025,4.025,0,0,1,2.712,2.08,3.853,3.853,0,0,1,.329,2.706,3.933,3.933,0,0,1-7.706-.273c-.3-2.115.81-3.761,3.055-4.51v-2.4h-9.363v2.4a4.007,4.007,0,0,1,2.758,2.263,3.8,3.8,0,0,1,.2,2.664,3.935,3.935,0,1,1-4.617-4.924v-2.4h-9.4c0,.737-.028,1.454.024,2.164.011.144.313.315.513.388a3.934,3.934,0,1,1-5.238,3.514,3.835,3.835,0,0,1,2.576-3.481c.445-.15.587-.339.565-.792-.037-.775-.016-1.554-.009-2.331.007-.831.255-1.075,1.1-1.076q4.662-.005,9.324,0h.543V273.14c-.219-.01-.421-.028-.623-.028-2.028,0-4.055,0-6.083,0-.875,0-1.117-.243-1.117-1.111q0-4.407,0-8.812c0-.839.241-1.078,1.081-1.078q7.589,0,15.179,0c.822,0,1.044.221,1.046,1.044q.005,4.435,0,8.869c0,.859-.224,1.086-1.074,1.087q-3.013.006-6.026,0Zm-7.855-9.407v7.8H712.57v-7.8Zm-3.982,17.289a2.345,2.345,0,1,0,2.364,2.317A2.321,2.321,0,0,0,694.508,280.994Zm11.03,0a2.346,2.346,0,1,0,2.358,2.33A2.329,2.329,0,0,0,705.538,280.994Zm11,0a2.346,2.346,0,1,0,2.376,2.317A2.356,2.356,0,0,0,716.541,280.994Z" transform="translate(-1.534 -1.79)" fill="#3a72c2"/>
  </g>
</svg>
