<svg xmlns="http://www.w3.org/2000/svg" width="18.682" height="18.417" viewBox="0 0 18.682 18.417">
  <g id="history" transform="translate(-288.48 -241.502)">
    <path id="Path_8771" data-name="Path 8771" d="M1693.312,271.733h-12.323v.278c0,4.108-.011,8.218,0,12.326a6.894,6.894,0,0,1-1.353,4.282c-.016.023-.028.048-.06.105h7.781a1.512,1.512,0,0,1,.221,0,.334.334,0,0,1,.314.34.343.343,0,0,1-.317.361,1.358,1.358,0,0,1-.155,0h-8.52c-.023,0-.044,0-.067,0a.364.364,0,0,1-.277-.646,5.884,5.884,0,0,0,1.148-1.641,6.139,6.139,0,0,0,.573-2.656q-.005-6.464,0-12.925c0-.456.089-.548.536-.548H1693.5c.425,0,.522.1.522.518v6.816a1.391,1.391,0,0,1-.008.2.347.347,0,0,1-.686.016,1.387,1.387,0,0,1-.014-.264v-6.569Z" transform="translate(-1389.939 -29.514)" fill="#fff"/>
    <path id="Path_8772" data-name="Path 8772" d="M1687.393,282.31c.063-.039.093-.061.124-.079a.331.331,0,0,1,.455.087.326.326,0,0,1-.026.462c-.265.277-.535.549-.813.813a.343.343,0,0,1-.513-.013q-.4-.383-.782-.782a.352.352,0,0,1-.018-.512.345.345,0,0,1,.512.013c.079.074.146.162.252.281.05-.2.082-.334.121-.472a4.577,4.577,0,1,1,1.271,4.573.532.532,0,0,1-.192-.3.5.5,0,0,1,.177-.343c.146-.118.295-.033.438.07a6.915,6.915,0,0,0,1.109.751,3.858,3.858,0,1,0-2.079-4.7C1687.417,282.194,1687.411,282.23,1687.393,282.31Z" transform="translate(-1388.521 -28.009)" fill="#fff"/>
    <path id="Path_8773" data-name="Path 8773" d="M1686.466,276.761h3.895a1.108,1.108,0,0,1,.2.006.351.351,0,0,1,.031.689.612.612,0,0,1-.176.013h-7.923a.722.722,0,0,1-.177-.011.335.335,0,0,1-.276-.373.33.33,0,0,1,.309-.32,1.231,1.231,0,0,1,.2,0Z" transform="translate(-1389.236 -28.398)" fill="#fff"/>
    <path id="Path_8774" data-name="Path 8774" d="M1686.438,274.753h3.873a1.821,1.821,0,0,1,.242.007.328.328,0,0,1,.307.322.32.32,0,0,1-.244.351.911.911,0,0,1-.262.026q-3.905,0-7.812,0a.886.886,0,0,1-.282-.033.314.314,0,0,1-.219-.365.319.319,0,0,1,.28-.3,1.376,1.376,0,0,1,.244-.01Z" transform="translate(-1389.236 -28.788)" fill="#fff"/>
    <path id="Path_8775" data-name="Path 8775" d="M1684.668,279.476h-2.19c-.283,0-.44-.128-.44-.351s.159-.356.437-.356q2.212,0,4.425,0c.278,0,.434.137.428.365s-.154.34-.425.342C1686.157,279.478,1685.412,279.476,1684.668,279.476Z" transform="translate(-1389.236 -28.008)" fill="#fff"/>
    <path id="Path_8776" data-name="Path 8776" d="M1689.937,281.744c0-.419,0-.84,0-1.26,0-.284.128-.445.345-.449s.361.167.362.46c0,.751,0,1.5.007,2.255a.558.558,0,0,0,.14.342c.311.334.641.65.964.975.2.2.22.406.067.563s-.367.139-.562-.055c-.387-.383-.78-.762-1.151-1.161a.693.693,0,0,1-.164-.408C1689.922,282.585,1689.937,282.164,1689.937,281.744Z" transform="translate(-1387.702 -27.762)" fill="#fff"/>
    <path id="Path_8777" data-name="Path 8777" d="M1683.828,281.485c-.457,0-.915,0-1.371,0-.266,0-.419-.135-.42-.349s.152-.356.416-.357q1.381-.005,2.764,0a.367.367,0,0,1,.413.363c-.006.205-.158.339-.407.342C1684.757,281.488,1684.293,281.484,1683.828,281.485Z" transform="translate(-1389.236 -27.618)" fill="#fff"/>
  </g>
</svg>
