<svg xmlns="http://www.w3.org/2000/svg" width="21.348" height="21.361" viewBox="0 0 21.348 21.361">
  <g id="home" transform="translate(-114.581 -150.693)">
    <path id="Path_480" data-name="Path 480" d="M134.125,219.387h-4.6a3.8,3.8,0,0,1-3.79-3.789q0-2.286,0-4.573a.755.755,0,0,1,.5-.739.69.69,0,0,1,.817.209,1.112,1.112,0,0,1,.2.586c.016,1.492.009,2.985.009,4.478a2.273,2.273,0,0,0,2.311,2.3q4.549,0,9.1,0a2.273,2.273,0,0,0,2.314-2.3q0-2.262,0-4.525a.76.76,0,0,1,1.5-.224,1.141,1.141,0,0,1,.026.283q0,2.274,0,4.549a3.8,3.8,0,0,1-3.716,3.741c-.778.009-1.556,0-2.334,0h-2.334Z" transform="translate(-8.869 -47.335)" fill="#262626"/>
    <path id="Path_481" data-name="Path 481" d="M125.2,152.517a1.542,1.542,0,0,1-.162.235q-4.526,4.535-9.055,9.067a.839.839,0,0,1-.8.306.763.763,0,0,1-.409-1.255c.047-.054.1-.1.15-.153l9.668-9.668a.8.8,0,0,1,1.325,0q4.843,4.842,9.686,9.683a.879.879,0,0,1,.327.636.735.735,0,0,1-.444.7.722.722,0,0,1-.8-.1,2.572,2.572,0,0,1-.206-.2q-4.5-4.507-9.006-9.016a1.661,1.661,0,0,1-.165-.232Z" transform="translate(0 0)" fill="#262626"/>
  </g>
</svg>
