<svg xmlns="http://www.w3.org/2000/svg" width="59.19" height="55.072" viewBox="0 0 59.19 55.072">
  <g id="productreports" transform="translate(-519.111 -273.882)">
    <path id="Path_8800" data-name="Path 8800" d="M554.7,320.462c-3.856,2.223-7.6,4.36-11.31,6.538a1.623,1.623,0,0,1-1.865.013q-10.757-6.255-21.549-12.449a1.493,1.493,0,0,1-.865-1.469q.033-12.547,0-25.094a1.325,1.325,0,0,1,.742-1.3q10.889-6.265,21.758-12.565a1.455,1.455,0,0,1,1.656,0q10.84,6.291,21.7,12.54a1.316,1.316,0,0,1,.756,1.291c-.028,2.452-.012,4.905-.012,7.437.985,0,1.937.011,2.886,0a2.99,2.99,0,0,1,3.008,1.849.647.647,0,0,0,.479.3c.857.03,1.716,0,2.575.017a3.584,3.584,0,0,1,3.623,3.609q.021,12.1,0,24.2a3.525,3.525,0,0,1-3.58,3.571q-8.205.022-16.41,0a3.526,3.526,0,0,1-3.6-3.607c-.012-1.418,0-2.835,0-4.253Zm-13.083,4.614c.012-.2.026-.318.026-.433q0-11.556.011-23.113a.74.74,0,0,0-.469-.723q-9.93-5.708-19.851-11.431c-.149-.086-.308-.153-.531-.263v.656q0,11.347-.013,22.693a.962.962,0,0,0,.576.963q9.65,5.535,19.283,11.1C540.953,324.7,541.259,324.872,541.618,325.076Zm14.76-11.819q0,5.987,0,11.973a1.862,1.862,0,0,0,1.935,2.037q8.171.013,16.342,0a1.864,1.864,0,0,0,1.96-1.961q.01-12.032,0-24.065a1.916,1.916,0,0,0-2-2c-.818-.012-1.637.016-2.454-.011a.622.622,0,0,0-.669.429,2.719,2.719,0,0,1-2.535,1.607c-1.656.028-3.312.018-4.968,0a2.273,2.273,0,0,1-2.144-1.09c-.482-1-1.212-1-2.075-.944-.4.026-.8,0-1.2,0a1.957,1.957,0,0,0-2.194,2.222Q556.376,307.361,556.377,313.257Zm7.647-24.15c-.173.091-.261.133-.345.182q-9.986,5.784-19.977,11.559a.739.739,0,0,0-.386.771q.01,11.433.006,22.866c0,.17.017.34.029.571.245-.128.438-.22.623-.327,3.4-1.965,6.793-3.94,10.2-5.888a.919.919,0,0,0,.536-.933q-.026-8.32-.008-16.64a3.582,3.582,0,0,1,3.7-3.7c.937-.006,1.874,0,2.833,0a3.089,3.089,0,0,1,2.785-2.184Zm-.837-1.477a2.865,2.865,0,0,0-.233-.173c-3.055-1.767-6.114-3.527-9.159-5.309-.342-.2-.555-.049-.808.1q-9.842,5.682-19.682,11.367c-.183.106-.358.224-.594.373.244.15.423.265.607.371,2.883,1.667,5.769,3.327,8.643,5.008a.83.83,0,0,0,.966,0q9.832-5.7,19.68-11.371C562.789,287.883,562.965,287.767,563.187,287.63Zm-41.522-.018c.284.172.467.286.654.395,2.711,1.566,5.427,3.121,8.127,4.706a.914.914,0,0,0,1.071.009q9.1-5.285,18.229-10.538c.651-.376,1.3-.758,2-1.168-.206-.135-.347-.235-.5-.322-2.763-1.6-5.533-3.178-8.282-4.8a.915.915,0,0,0-1.074.022q-6.907,4.008-13.828,7.992C525.965,285.126,523.863,286.342,521.665,287.612Zm44.848,11.99c.777,0,1.555.011,2.332,0a1.255,1.255,0,1,0,0-2.508q-2.331-.019-4.664,0a1.257,1.257,0,1,0,0,2.509C564.959,299.611,565.736,299.6,566.513,299.6Z" transform="translate(0 0)" fill="#3971c1"/>
    <path id="Path_8801" data-name="Path 8801" d="M581.688,331.489c0,.618.01,1.235,0,1.853a.854.854,0,0,1-.955.963q-1.853.018-3.706,0a.849.849,0,0,1-.962-.954q-.017-1.853,0-3.706a.849.849,0,0,1,.954-.962q1.853-.018,3.706,0a.853.853,0,0,1,.963.954C581.7,330.254,581.688,330.871,581.688,331.489Zm-1.707-1.095h-2.2V332.6h2.2Z" transform="translate(-17.645 -16.978)" fill="#3971c1"/>
    <path id="Path_8802" data-name="Path 8802" d="M578.448,343.976c.137.422.305.877-.127,1.206a1.932,1.932,0,0,1-1.773.138c-.481-.136-.5-.606-.492-1.045.01-1.137,0-2.273,0-3.409,0-.779.3-1.075,1.092-1.078,1.156-.006,2.312.007,3.469-.006.492-.006.932.148,1.011.643.09.565.271,1.212-.282,1.678-.492.415-1.037.166-1.412-.614h-2.168V343.7l.572.174Z" transform="translate(-17.645 -20.421)" fill="#3971c1"/>
    <path id="Path_8803" data-name="Path 8803" d="M577.758,319.249v2.214a2.876,2.876,0,0,1,.485.225.794.794,0,0,1,.286,1.007c-.181.477-.912.676-1.767.489a.835.835,0,0,1-.7-.906c0-1.255-.009-2.511,0-3.767a.833.833,0,0,1,.921-.934c1.255-.014,2.511,0,3.767-.006a.806.806,0,0,1,.892.638c.091.5.212,1.086-.319,1.416-.226.141-.749.2-.863.059-.505-.6-1.144-.409-1.752-.434C578.414,319.239,578.117,319.249,577.758,319.249Z" transform="translate(-17.646 -13.538)" fill="#3971c1"/>
    <path id="Path_8804" data-name="Path 8804" d="M581.2,321.5c.871-.886,1.643-1.689,2.436-2.472a.84.84,0,0,1,1.306,0,.794.794,0,0,1-.082,1.133q-1.488,1.512-3,3a.8.8,0,0,1-1.224,0c-.449-.422-.891-.856-1.308-1.311a.829.829,0,1,1,1.17-1.174A9.121,9.121,0,0,1,581.2,321.5Z" transform="translate(-18.576 -13.895)" fill="#3971c1"/>
    <path id="Path_8805" data-name="Path 8805" d="M579.383,344.4l-.106-.1c-.246-.461-.349-.952.154-1.271.924-.586,1.242.441,1.883.792.757-.77,1.515-1.558,2.293-2.326a.847.847,0,0,1,1.382.028.769.769,0,0,1-.1,1.037q-1.506,1.533-3.039,3.04a.806.806,0,0,1-1.222-.011C580.21,345.2,579.8,344.8,579.383,344.4Z" transform="translate(-18.58 -20.846)" fill="#3971c1"/>
    <path id="Path_8806" data-name="Path 8806" d="M592.9,320.522c.8,0,1.591,0,2.388,0,.674,0,1.078.331,1.068.851-.01.5-.4.821-1.037.823q-2.447.008-4.9,0c-.637,0-1.008-.331-1-.851s.377-.817,1.028-.822C591.265,320.518,592.082,320.522,592.9,320.522Z" transform="translate(-21.787 -14.452)" fill="#3971c1"/>
    <path id="Path_8807" data-name="Path 8807" d="M592.838,333.307c-.8,0-1.592,0-2.388,0-.65-.005-1.019-.307-1.028-.823s.362-.848,1-.85q2.447-.01,4.894,0c.637,0,1.028.321,1.037.822.01.52-.394.848-1.068.852C594.47,333.311,593.654,333.307,592.838,333.307Z" transform="translate(-21.787 -17.894)" fill="#3971c1"/>
    <path id="Path_8808" data-name="Path 8808" d="M592.833,344.415c-.816,0-1.631.008-2.447,0-.6-.008-.958-.328-.964-.825a.837.837,0,0,1,.944-.845q2.506-.015,5.014,0a.844.844,0,1,1,.021,1.67C594.545,344.424,593.689,344.415,592.833,344.415Z" transform="translate(-21.787 -21.335)" fill="#3971c1"/>
  </g>
</svg>
