<svg xmlns="http://www.w3.org/2000/svg" width="18.78" height="21.361" viewBox="0 0 18.78 21.361">
  <g id="profile" transform="translate(-1624.037 -343.614)">
    <path id="Path_8760" data-name="Path 8760" d="M1624.5,368.313a.806.806,0,0,1-.462-.861,8.234,8.234,0,0,1,6.771-7.858,10.18,10.18,0,0,1,1.429-.12c.841-.019,1.684-.029,2.523,0a8.012,8.012,0,0,1,7.14,4.46,7.929,7.929,0,0,1,.914,3.538.782.782,0,0,1-.461.841Zm17.048-1.26c-.053-.314-.1-.6-.153-.887a6.917,6.917,0,0,0-6.561-5.441c-.938-.013-1.877-.016-2.815,0a5.847,5.847,0,0,0-1.219.138,6.826,6.826,0,0,0-5.235,4.9,13.061,13.061,0,0,0-.271,1.288Z" transform="translate(0 -3.338)" fill="#262626"/>
    <path id="Path_8761" data-name="Path 8761" d="M1634.433,354.878a5.632,5.632,0,1,1,5.63-5.624A5.643,5.643,0,0,1,1634.433,354.878Zm-.017-1.252a4.381,4.381,0,1,0-4.365-4.391A4.387,4.387,0,0,0,1634.416,353.627Z" transform="translate(-1.003)" fill="#262626"/>
  </g>
</svg>
