<svg xmlns="http://www.w3.org/2000/svg" width="15.677" height="23.223" viewBox="0 0 15.677 23.223">
  <g id="professional" transform="translate(-176.161 -238.889)">
    <path id="Path_8770" data-name="Path 8770" d="M1646.555,331.935a1.071,1.071,0,0,1-.669-1.152c.015-2.185.008-4.37,0-6.555a3.242,3.242,0,0,1,.463-1.863,3.127,3.127,0,0,1,1.5-1.226c1.226-.474,2.448-.951,3.675-1.419a.326.326,0,0,0,.244-.336,1.113,1.113,0,0,0-.415-1.035,2.672,2.672,0,0,1-.841-1.6.214.214,0,0,0-.2-.21,1.426,1.426,0,0,1-.925-2.227.537.537,0,0,0,.074-.295c.031-.61,0-1.23.087-1.83a4.206,4.206,0,0,1,8.35.692c.006.218.006.438,0,.658a1.922,1.922,0,0,0,.2.991,1.414,1.414,0,0,1-1.04,2.012c-.136.026-.19.072-.214.206a3.053,3.053,0,0,1-1.025,1.793.369.369,0,0,0-.152.326c.012.248,0,.5,0,.755l3.093,1.2c.351.138.715.25,1.05.422a2.961,2.961,0,0,1,1.732,2.761c.01.726,0,1.452,0,2.178,0,.067.008.158-.03.2-.1.093-.217.224-.323.22s-.225-.139-.3-.244c-.045-.061-.022-.176-.023-.266-.007-.763.014-1.529-.023-2.29a2.16,2.16,0,0,0-1.344-1.946c-.789-.36-1.613-.639-2.446-.964-.042.078-.081.147-.116.22l-.86,1.722c-.292.584-.549.665-1.119.345a.777.777,0,0,0-.238.7c.336,1.889.65,3.782.97,5.672a.657.657,0,0,1-.187.581c-.281.306-.559.614-.839.923-.048.053-.094.111-.16.188h3.659v-6.5c0-.364.11-.53.349-.525s.33.164.33.519v6.516h.845c.286,0,.574,0,.861,0,.266,0,.315-.048.315-.321,0-.953,0-1.905,0-2.858a1.869,1.869,0,0,1,.011-.248.329.329,0,0,1,.651-.014,1.348,1.348,0,0,1,.018.247c0,.908-.016,1.815.007,2.723a1.06,1.06,0,0,1-.669,1.152H1651.5c-.139-.087-.258-.186-.236-.377s.16-.3.407-.3c.411,0,.822,0,1.281,0-.367-.405-.695-.768-1.024-1.13a.658.658,0,0,1-.184-.581c.318-1.875.626-3.753.962-5.626a.779.779,0,0,0-.232-.741c-.558.317-.824.235-1.107-.329l-.122-.243-.853-1.711c-.086.03-.156.052-.225.079q-.95.366-1.9.737a2.377,2.377,0,0,0-1.7,2.476v4.625q0,1.044,0,2.087c0,.317.04.356.347.356q.737,0,1.474,0c.064,0,.128-.01.2-.015v-6.484a1.561,1.561,0,0,1,.005-.227.334.334,0,0,1,.662-.026,1.152,1.152,0,0,1,.012.248v6.5c.265,0,.491-.01.717,0a.333.333,0,0,1,.295.513,1.5,1.5,0,0,1-.146.164Zm8.836-19.163a7.38,7.38,0,0,1-4.253,1.152c0,.714,0,1.395,0,2.074a4.189,4.189,0,0,0,.044.586,2.52,2.52,0,0,0,2.706,2.066,2.476,2.476,0,0,0,2.333-2.346c.026-.83.011-1.662.008-2.493a.321.321,0,0,0-.071-.2C1655.915,313.332,1655.659,313.063,1655.39,312.772Zm1.813.951a3.643,3.643,0,0,0-1.833-3.9,3.343,3.343,0,0,0-3.868.329,3.773,3.773,0,0,0-1.329,3.629c.127-.061.282-.083.322-.164a.7.7,0,0,1,.752-.382,6.217,6.217,0,0,0,2.823-.542c.33-.145.643-.332.961-.5a.565.565,0,0,1,.715.005c.383.374.736.779,1.1,1.174a.152.152,0,0,1,.048.1C1656.878,313.7,1657.023,313.726,1657.2,313.723Zm-3.8,10.116c-.084.5-.165.973-.246,1.448q-.354,2.1-.706,4.2a.315.315,0,0,0,.03.228c.4.457.816.906,1.24,1.373.378-.416.733-.828,1.114-1.213a.523.523,0,0,0,.143-.524c-.241-1.4-.476-2.8-.714-4.2-.074-.437-.15-.873-.227-1.313Zm-.94-4.726a1.048,1.048,0,0,0,.238.957c.314.323.576.7.863,1.05.049.061.1.119.167.188.352-.434.662-.867,1.025-1.247a1.09,1.09,0,0,0,.227-.97A3.478,3.478,0,0,1,1652.463,319.113Zm1.751,2.679,1.2.852,1-2c-.3-.117-.59-.233-.88-.334a.188.188,0,0,0-.161.059C1654.99,320.83,1654.613,321.3,1654.214,321.792Zm-3.186-1.149,1,2,1.2-.852c-.4-.489-.782-.969-1.175-1.445a.166.166,0,0,0-.147-.04C1651.617,320.409,1651.332,320.524,1651.029,320.643Zm5.9-6.253v1.471a.736.736,0,0,0,.646-.736A.744.744,0,0,0,1656.93,314.389Zm-3.864,8.358c.146.575.594.378.947.4.26.015.253-.25.393-.382-.213-.151-.4-.291-.594-.419a.179.179,0,0,0-.158-.016C1653.45,322.465,1653.252,322.614,1653.066,322.747Zm-2.615-8.337a.744.744,0,0,0-.64.8.689.689,0,0,0,.64.64Z" transform="translate(-1469.725 -69.824)" fill="#fff"/>
  </g>
</svg>
