<svg xmlns="http://www.w3.org/2000/svg" width="27.722" height="28.536" viewBox="0 0 27.722 28.536">
  <g id="department" transform="translate(-679.613 -249.291)">
    <path id="Path_8822" data-name="Path 8822" d="M682.053,273.345V258.694h.808v14.651h14.031c.559,0,.649.095.657.642a10.017,10.017,0,0,0,.049,1.351,1.992,1.992,0,0,0,2.16,1.665,2.013,2.013,0,0,0,1.858-1.91c.007-.137.008-.275.008-.412q0-9.8,0-19.593c0-.835.016-1.669,0-2.5a3.172,3.172,0,0,1,.843-2.454c-.146-.009-.236-.02-.327-.02q-8.338,0-16.677,0a2.446,2.446,0,0,0-2.59,2.611q0,1.975,0,3.948v.339h-.8c-.006-.082-.017-.167-.017-.251,0-1.375-.008-2.75,0-4.125a3.254,3.254,0,0,1,2.8-3.305,3.947,3.947,0,0,1,.646-.032q9.443,0,18.886,0a2.839,2.839,0,0,1,2.94,2.9c.008.756,0,1.512,0,2.269,0,.407-.136.541-.554.542q-1.989,0-3.978,0h-.361v.395q0,9.708,0,19.416a2.839,2.839,0,0,1-1.938,2.856,3.01,3.01,0,0,1-.924.148q-8.545.013-17.089,0a2.828,2.828,0,0,1-2.871-2.849c-.007-.383-.005-.766,0-1.149,0-.337.147-.477.49-.479C680.743,273.342,681.379,273.345,682.053,273.345Zm14.687.834H680.413a8.445,8.445,0,0,0,.073,1.239,2.006,2.006,0,0,0,2.112,1.591q7.335,0,14.67,0c.082,0,.164-.012.3-.023A3.383,3.383,0,0,1,696.739,274.179Zm9.749-20.009a.629.629,0,0,0,.025-.123c0-.676.018-1.354-.009-2.029a2,2,0,0,0-1.828-1.9,1.966,1.966,0,0,0-2.184,1.69,22.678,22.678,0,0,0-.04,2.318c0,.015.024.029.036.043Z" fill="#f3f6f9"/>
    <path id="Path_8823" data-name="Path 8823" d="M698.756,267.809v1.219h5.069c.516,0,.627.11.628.616,0,.48,0,.961,0,1.457a2.085,2.085,0,0,1,1.405,1.078,2,2,0,0,1,.17,1.4,2.04,2.04,0,1,1-2.41-2.478v-1.241h-4.851V271.1a2.076,2.076,0,0,1,1.429,1.173,1.971,1.971,0,0,1,.1,1.38,2.039,2.039,0,1,1-2.392-2.551v-1.242h-4.873c0,.382-.015.753.012,1.122.006.074.162.163.266.2a2.038,2.038,0,1,1-2.714,1.821,1.987,1.987,0,0,1,1.335-1.8c.23-.078.3-.176.293-.41-.019-.4-.008-.805,0-1.208,0-.431.132-.557.57-.558q2.416,0,4.831,0h.281v-1.2c-.113-.005-.218-.014-.323-.014-1.051,0-2.1,0-3.152,0-.453,0-.579-.126-.579-.576q0-2.283,0-4.566c0-.435.125-.559.56-.559h7.865c.426,0,.541.115.542.541q0,2.3,0,4.6c0,.445-.116.563-.556.563q-1.561,0-3.123,0Zm-4.07-4.874v4.041h7.3v-4.041Zm-2.063,8.959a1.215,1.215,0,1,0,1.225,1.2A1.2,1.2,0,0,0,692.624,271.894Zm5.715,0a1.215,1.215,0,1,0,1.222,1.207A1.207,1.207,0,0,0,698.339,271.894Zm5.7,0a1.215,1.215,0,1,0,1.231,1.2A1.221,1.221,0,0,0,704.04,271.894Z" transform="translate(-6.088 -7.103)" fill="#f3f6f9"/>
  </g>
</svg>
