<svg xmlns="http://www.w3.org/2000/svg" width="26.853" height="28.536" viewBox="0 0 26.853 28.536">
  <g id="progress" transform="translate(-648.295 -508.388)">
    <path id="Path_8824" data-name="Path 8824" d="M667.685,508.388c.014.012.025.03.042.035a1.5,1.5,0,0,1,1.159,1.621q0,2.9,0,5.8v12.591l.076.047a.918.918,0,0,0,.193-.224c.092-.232.137-.486.248-.707a.533.533,0,0,1,.331-.263,7.9,7.9,0,0,1,.889-.046.365.365,0,0,1,.4.272,2.476,2.476,0,0,1,.1.287.866.866,0,0,0,.7.75.605.605,0,0,0,.465-.022c.974-.487.7-.546,1.507.219.368.347.365.35.157.806a.774.774,0,0,1-.083.175c-.324.4-.051.747.091,1.1.019.048.1.081.152.1.129.05.263.09.4.132.608.194.612.193.624.843.018.9.1.757-.734,1.072-.128.048-.3.082-.362.18a1.652,1.652,0,0,0-.258.667c-.016.15.125.319.205.475.341.666.324.584-.161,1.085-.6.62-.451.637-1.223.229-.435-.23-.719.017-1.054.143-.067.025-.1.167-.13.26-.354,1.012-.113.878-1.233.9-.5.011-.5.007-.676-.466a2.631,2.631,0,0,1-.114-.314.5.5,0,0,0-.505-.436.151.151,0,0,0-.038.047,1.511,1.511,0,0,1-1.668,1.173H649.991a1.52,1.52,0,0,1-1.7-1.7v-25a1.584,1.584,0,0,1,1.221-1.835Zm.609,20.278V510.117c0-.824-.3-1.13-1.12-1.13-5.721,0-11.442.008-17.163-.01a1.007,1.007,0,0,0-1.123,1.113q.023,10.811.009,21.621c0,1.216-.011,2.433.01,3.65a1.315,1.315,0,0,0,.225.66.889.889,0,0,0,.823.306q8.624,0,17.247,0a2.662,2.662,0,0,0,.333-.013.75.75,0,0,0,.654-.592c-.145.072-.269.125-.385.191a.414.414,0,0,1-.573-.079,6.654,6.654,0,0,0-.543-.521.409.409,0,0,1-.1-.567,5.383,5.383,0,0,0,.277-.607.521.521,0,0,0,0-.283.938.938,0,0,0-.873-.779,1.528,1.528,0,0,1-.213-.064.366.366,0,0,1-.3-.382c0-.3-.011-.594-.022-.891a.355.355,0,0,1,.265-.377c.227-.081.456-.158.678-.251a.421.421,0,0,0,.2-.165.951.951,0,0,0-.024-1.17,1.527,1.527,0,0,1-.128-.246.363.363,0,0,1,.066-.479c.2-.2.4-.411.6-.624a.361.361,0,0,1,.475-.082C667.806,528.45,668.026,528.544,668.294,528.666Zm2.223-.8c-.586-.056-.587-.056-.753.46-.029.088-.059.176-.081.266a.462.462,0,0,1-.383.389.6.6,0,0,0-.259.1,1.061,1.061,0,0,1-1.349-.027c-.171-.109-.278-.066-.425.068a.382.382,0,0,0-.073.569,1.115,1.115,0,0,1,.144,1.1,1.436,1.436,0,0,1-1.112,1.037.28.28,0,0,0-.153.207c-.036.438-.033.455.388.569a1.222,1.222,0,0,1,.85.713,1.333,1.333,0,0,1-.064,1.439.283.283,0,0,0-.033.227.463.463,0,0,0,.69.217,1.838,1.838,0,0,0,.2-.1.967.967,0,0,1,.878-.042,1.34,1.34,0,0,1,1.059,1.12.231.231,0,0,0,.135.145.443.443,0,0,0,.633-.345c.046-.141.1-.28.136-.423a.436.436,0,0,1,.351-.351.717.717,0,0,0,.285-.106,1.053,1.053,0,0,1,1.327.03.3.3,0,0,0,.431-.065c.187-.185.244-.342.082-.565a.961.961,0,0,1-.067-1.224c.066-.094.058-.24.121-.338a.968.968,0,0,1,.313-.341,6.237,6.237,0,0,1,.741-.286c.048-.594.054-.618-.485-.757a1.067,1.067,0,0,1-.725-.658,1.328,1.328,0,0,1,.045-1.466.281.281,0,0,0,.016-.246c-.2-.323-.355-.356-.7-.181a1.3,1.3,0,0,0-.173.089.7.7,0,0,1-.871.03c-.153-.1-.355-.11-.517-.2a.725.725,0,0,1-.3-.282A8.181,8.181,0,0,1,670.517,527.861Z" transform="translate(0 0)" fill="#f3f6f9"/>
    <path id="Path_8825" data-name="Path 8825" d="M668.289,549.592c-.418,0-.8,0-1.179,0-.216,0-.408-.04-.408-.3s.185-.29.389-.289c.622,0,1.244,0,1.866,0,.306,0,.4.1.4.4,0,.622,0,1.244,0,1.866,0,.207-.06.382-.3.382s-.3-.174-.3-.383c0-.389,0-.779,0-1.217-.081.065-.137.1-.183.148q-1.734,1.732-3.47,3.463a.33.33,0,0,0-.1.406,1.089,1.089,0,0,1-.419,1.253,1.137,1.137,0,0,1-1.282-.01,1.082,1.082,0,0,1-.4-1.259.308.308,0,0,0-.1-.381q-1.138-1.127-2.263-2.267a.328.328,0,0,0-.357-.1,2,2,0,0,1-.731,0,.313.313,0,0,0-.335.085q-1.214,1.228-2.442,2.442a.29.29,0,0,0-.084.36,1.08,1.08,0,0,1-.459,1.307,1.117,1.117,0,0,1-1.538-1.542,1.088,1.088,0,0,1,1.309-.456.286.286,0,0,0,.357-.086q1.216-1.226,2.443-2.441a.274.274,0,0,0,.078-.336,1.094,1.094,0,0,1,.378-1.267,1.115,1.115,0,0,1,1.3-.018,1.091,1.091,0,0,1,.406,1.281.294.294,0,0,0,.1.359q1.146,1.14,2.281,2.288a.317.317,0,0,0,.334.085,5.13,5.13,0,0,1,.761-.006c.089,0,.209.008.26-.043q1.821-1.8,3.627-3.621A.566.566,0,0,0,668.289,549.592Zm-12.745,4.444a.5.5,0,0,0-.51.51.518.518,0,1,0,.51-.51Zm4.805-3.772a.513.513,0,0,0-.512-.512.521.521,0,0,0-.527.529.532.532,0,0,0,.517.517A.521.521,0,0,0,660.349,550.263Zm4.124,4.142a.52.52,0,0,0-.527-.527.524.524,0,0,0,.02,1.048A.522.522,0,0,0,664.474,554.405Z" transform="translate(-3.302 -21.857)" fill="#f3f6f9"/>
    <path id="Path_8826" data-name="Path 8826" d="M656.561,515.129a2.841,2.841,0,1,1-2.844,2.821A2.837,2.837,0,0,1,656.561,515.129Zm2.212,3.131c-.717,0-1.412,0-2.107,0-.312,0-.395-.083-.4-.4,0-.408,0-.816,0-1.224v-.877a2.2,2.2,0,0,0-1.949,2.206,2.236,2.236,0,0,0,4.455.292Zm-.006-.615c-.109-.984-1.091-1.941-1.9-1.861v1.879c.572,0,1.126,0,1.68,0C658.623,517.662,658.694,517.651,658.766,517.645Z" transform="translate(-2.918 -3.628)" fill="#f3f6f9"/>
    <path id="Path_8827" data-name="Path 8827" d="M661.523,542.657h7.24c.084,0,.187-.03.247.008.112.071.258.168.285.279.041.174-.1.286-.278.309a1.7,1.7,0,0,1-.223.005h-14.7c-.2,0-.358-.082-.358-.3s.151-.3.356-.3h7.435Z" transform="translate(-2.926 -18.436)" fill="#f3f6f9"/>
    <path id="Path_8828" data-name="Path 8828" d="M661.5,537.754h-7.211c-.084,0-.167,0-.251,0a.281.281,0,0,1-.3-.293c0-.189.122-.28.3-.295.074-.006.149,0,.223,0H668.9c.219-.005.408.055.4.311-.009.236-.19.284-.4.283q-2.743,0-5.485,0Z" transform="translate(-2.925 -15.484)" fill="#f3f6f9"/>
    <path id="Path_8829" data-name="Path 8829" d="M661.527,531.651H668.8c.093,0,.2-.028.274.012.1.058.239.17.236.255a.5.5,0,0,1-.22.3c-.062.046-.179.023-.272.023H654.244c-.074,0-.17.024-.218-.013-.106-.079-.26-.192-.259-.289s.158-.206.269-.278c.059-.038.163-.008.246-.008Z" transform="translate(-2.945 -12.513)" fill="#f3f6f9"/>
    <path id="Path_8830" data-name="Path 8830" d="M673.784,526.121h3.591c.092,0,.207-.025.273.019.1.065.215.181.217.277s-.116.213-.211.28c-.064.045-.179.023-.272.023h-7.238a1.518,1.518,0,0,1-.194,0c-.178-.023-.324-.126-.282-.3.026-.112.17-.207.279-.284.05-.035.145-.008.218-.008Z" transform="translate(-11.498 -9.538)" fill="#f3f6f9"/>
    <path id="Path_8831" data-name="Path 8831" d="M673.753,521.213c-1.234,0-2.468,0-3.7-.007a.513.513,0,0,1-.371-.165c-.115-.161-.032-.325.159-.393a.921.921,0,0,1,.3-.03h7.209c.046,0,.093,0,.139,0,.211.005.38.081.368.318-.011.217-.17.28-.374.279C676.239,521.211,675,521.213,673.753,521.213Z" transform="translate(-11.48 -6.581)" fill="#f3f6f9"/>
    <path id="Path_8832" data-name="Path 8832" d="M673.761,515.7h-3.589c-.093,0-.206.024-.272-.019-.1-.063-.214-.178-.215-.271s.116-.212.21-.277c.065-.044.18-.018.272-.018H677.4c.083,0,.19-.026.245.015.1.074.221.186.23.29.006.084-.128.2-.225.263-.068.042-.181.018-.273.018Z" transform="translate(-11.511 -3.616)" fill="#f3f6f9"/>
    <path id="Path_8833" data-name="Path 8833" d="M695.615,557.29a2.07,2.07,0,1,1-2.057-2.078A2.059,2.059,0,0,1,695.615,557.29Zm-2.07-1.479a1.466,1.466,0,0,0-1.477,1.462,1.481,1.481,0,1,0,2.962.025A1.475,1.475,0,0,0,693.544,555.811Z" transform="translate(-23.237 -25.199)" fill="#f3f6f9"/>
  </g>
</svg>
