<svg xmlns="http://www.w3.org/2000/svg" width="21.359" height="21.361" viewBox="0 0 21.359 21.361">
  <g id="reports" transform="translate(-216.8 -94.45)">
    <path id="Path_8745" data-name="Path 8745" d="M232.653,115.811c-.134-.054-.273-.1-.4-.163a1.329,1.329,0,0,1-.721-1.012,13.79,13.79,0,0,1,.063-5.036.394.394,0,0,0-.071-.277.933.933,0,0,1,.3-1.4.243.243,0,0,0,.149-.257c0-.876-.008-1.752,0-2.628,0-.176-.055-.233-.219-.273a5.069,5.069,0,0,1-3.892-3.566,5,5,0,0,1,1.147-5.054c.067-.076.14-.147.238-.25h-9.682a2.292,2.292,0,0,1,.288,1.505q0,7.873,0,15.745c0,.331,0,.331.328.331q5.057,0,10.115,0a1,1,0,0,1,.287.031.274.274,0,0,1,.2.323.28.28,0,0,1-.253.263,1.273,1.273,0,0,1-.208.008h-10.24a.743.743,0,0,1-.854-.854q0-6.309,0-12.617v-.3h-.467c-.507,0-1.015-.006-1.522,0a.439.439,0,0,1-.437-.216V96.579a4,4,0,0,1,.313-.694,1.554,1.554,0,0,1,1.38-.628q5.713,0,11.426,0a.531.531,0,0,0,.255-.059,5.3,5.3,0,0,1,7.6,2.568,10.447,10.447,0,0,1,.383,1.485v.876c-.015.067-.027.135-.045.2a9.369,9.369,0,0,1-.35,1.3,5.152,5.152,0,0,1-3.756,3.146c-.127.03-.205.055-.2.219.009.9.007,1.807,0,2.71a.214.214,0,0,0,.14.219.931.931,0,0,1,.29,1.41.338.338,0,0,0-.066.239,13.3,13.3,0,0,1,.239,3.565c-.007.108,0,.217,0,.344h.385c.312,0,.312,0,.312-.3q0-3.94,0-7.88a1.613,1.613,0,0,1,.008-.25.281.281,0,0,1,.281-.257.273.273,0,0,1,.31.219,1.118,1.118,0,0,1,.025.268q0,2.564,0,5.128c0,.966,0,1.932,0,2.9a.726.726,0,0,1-.8.8c-.2,0-.4,0-.6,0-.021.125-.042.227-.054.33a1.441,1.441,0,0,1-.671,1.162,4.137,4.137,0,0,1-.493.212Zm-4.416-16.135a4.648,4.648,0,1,0,4.644-4.6A4.635,4.635,0,0,0,228.237,99.675Zm5.321,10c-.425,0-.834,0-1.242.007-.043,0-.111.089-.122.145a12.946,12.946,0,0,0-.039,4.74.74.74,0,0,0,1.46,0A13.151,13.151,0,0,0,233.558,109.672ZM219.217,99.7c0-1.031.014-2.043-.013-3.054a.907.907,0,0,0-.29-.528.807.807,0,0,0-.945-.154.864.864,0,0,0-.541.841c0,.93,0,1.86,0,2.79a.81.81,0,0,0,.014.1Zm13.953,8.1v-2.893h-.562V107.8Zm-.295,1.245c.2,0,.4.005.6,0s.332-.116.338-.291-.118-.31-.336-.314q-.592-.011-1.185,0c-.22,0-.344.128-.338.312s.124.286.336.293C232.486,109.05,232.681,109.045,232.875,109.045Z" fill="#fff"/>
    <path id="Path_8746" data-name="Path 8746" d="M300.311,347.453h.589c0-.228,0-.448,0-.668,0-.257,0-.515,0-.772a.531.531,0,0,1,.576-.569q.344,0,.688,0a.524.524,0,0,1,.577.564c.007.389,0,.779,0,1.168,0,.083,0,.166,0,.276.084,0,.157.011.23.011.341,0,.681,0,1.022,0,.236.005.362.126.359.318s-.129.3-.369.3c-.556,0-1.112,0-1.669,0h-7.4c-.408,0-.491-.082-.491-.485q0-2.054,0-4.109a.944.944,0,0,1,.019-.248.284.284,0,0,1,.308-.226.288.288,0,0,1,.288.253,1,1,0,0,1,.009.208q0,1.867,0,3.734v.236h1v-.395c0-.612,0-1.224,0-1.835a.532.532,0,0,1,.574-.591q.344-.009.688,0a.534.534,0,0,1,.575.591c0,.736,0,1.472,0,2.225h.587v-.223q0-1.762,0-3.525c0-.506.18-.683.691-.683.195,0,.389,0,.584,0a.519.519,0,0,1,.563.575q0,1.794,0,3.587Zm-1.2-3.8v3.795h.559v-3.795Zm-1.867,3.8v-2.187h-.557v2.187Zm4.3-1.372v1.367h.567v-1.367Z" transform="translate(-73.576 -235.602)" fill="#fff"/>
    <path id="Path_8747" data-name="Path 8747" d="M298.313,280.85h3.295a.966.966,0,0,1,.207.011.291.291,0,0,1,.25.292.288.288,0,0,1-.232.305.8.8,0,0,1-.207.017h-6.611a1.039,1.039,0,0,1-.166-.006.309.309,0,0,1,0-.615,1.331,1.331,0,0,1,.187,0Z" transform="translate(-73.713 -176.679)" fill="#fff"/>
    <path id="Path_8748" data-name="Path 8748" d="M297.771,304.7h-2.688a.963.963,0,0,1-.207-.011.266.266,0,0,1-.239-.293.547.547,0,0,1,.215-.292c.06-.046.173-.029.263-.029h5.314c.334,0,.492.1.488.32s-.155.306-.478.306Z" transform="translate(-73.774 -198.693)" fill="#fff"/>
    <path id="Path_8749" data-name="Path 8749" d="M297.643,257.594h2.667a1.7,1.7,0,0,1,.187,0,.293.293,0,0,1,.287.3.29.29,0,0,1-.256.307,1.006,1.006,0,0,1-.207.013h-5.355c-.042,0-.083,0-.125,0a.328.328,0,0,1-.344-.318.317.317,0,0,1,.352-.3C295.781,257.593,296.712,257.594,297.643,257.594Z" transform="translate(-73.646 -154.636)" fill="#fff"/>
    <path id="Path_8750" data-name="Path 8750" d="M297.233,148.842H299.5a.965.965,0,0,1,.208.01.291.291,0,0,1,.25.291.287.287,0,0,1-.229.306.878.878,0,0,1-.227.017h-4.586c-.279,0-.432-.113-.432-.313s.153-.312.432-.312Z" transform="translate(-73.636 -51.555)" fill="#fff"/>
    <path id="Path_8751" data-name="Path 8751" d="M296.439,172.715c-.521,0-1.041,0-1.562,0a.324.324,0,0,1-.367-.266c-.041-.2.122-.358.378-.359.632,0,1.263,0,1.895,0,.389,0,.777,0,1.166,0,.262,0,.411.115.415.309s-.144.315-.405.316C297.452,172.716,296.945,172.715,296.439,172.715Z" transform="translate(-73.652 -73.59)" fill="#fff"/>
    <path id="Path_8752" data-name="Path 8752" d="M295.634,210.984c.25,0,.5,0,.751,0a.314.314,0,1,1,0,.621q-.761.01-1.522,0a.314.314,0,1,1,0-.621C295.12,210.98,295.377,210.984,295.634,210.984Z" transform="translate(-73.651 -110.456)" fill="#fff"/>
    <path id="Path_8753" data-name="Path 8753" d="M454.3,119.954v3.669l.051.023c.111-.237.24-.467.327-.713a5.4,5.4,0,0,0,.17-.706c.051-.244.176-.366.366-.34s.293.174.254.425a3.881,3.881,0,0,1-2.617,3.25,4.014,4.014,0,1,1,2.463-4.954c.037.112.068.226.095.341a.319.319,0,0,1-.209.416c-.172.052-.319-.046-.394-.246-.127-.336-.261-.67-.395-1A1.139,1.139,0,0,0,454.3,119.954Zm-.631,1.871c0-.806,0-1.612,0-2.418a.3.3,0,0,0-.137-.276,3.583,3.583,0,0,0-1.721-.679,3.415,3.415,0,0,0-3.794,3.372,3.226,3.226,0,0,0,1.862,2.985,3.373,3.373,0,0,0,3.607-.269.379.379,0,0,0,.185-.359C453.667,123.4,453.672,122.61,453.672,121.825Z" transform="translate(-218.565 -22.137)" fill="#fff"/>
    <path id="Path_8754" data-name="Path 8754" d="M472.722,158.115a2.66,2.66,0,0,1,.743-1.833c.167-.177.328-.2.475-.08s.159.3-.009.494a2.077,2.077,0,0,0-.546,1.787,2.029,2.029,0,0,0,.486,1.02c.22.254.238.416.079.561s-.345.093-.562-.156A2.68,2.68,0,0,1,472.722,158.115Z" transform="translate(-242.576 -58.461)" fill="#fff"/>
  </g>
</svg>
