<svg xmlns="http://www.w3.org/2000/svg" xmlns:xlink="http://www.w3.org/1999/xlink" width="55.074" height="55.072" viewBox="0 0 55.074 55.072">
  <defs>
    <linearGradient id="linear-gradient" x1="0.5" x2="0.5" y2="1" gradientUnits="objectBoundingBox">
      <stop offset="0" stop-color="#3b76c9"/>
      <stop offset="1" stop-color="#376dba"/>
    </linearGradient>
  </defs>
  <g id="analyticalreports" transform="translate(-68 -166)">
    <g id="Group_5039" data-name="Group 5039" transform="translate(-832.251 67.608)">
      <path id="Path_8229" data-name="Path 8229" d="M923.481,98.392c1.076.172,2.161.3,3.224.525a21.27,21.27,0,0,1,9.8,4.985c.473.418.558.884.243,1.26-.332.4-.819.382-1.32-.059a19.061,19.061,0,0,0-9.406-4.674c-8.3-1.455-15.093,1.2-20.229,7.846a19.164,19.164,0,0,0-3.906,12.843,20.158,20.158,0,0,0,39.931,2.866,19.626,19.626,0,0,0-3.651-15.906,5.243,5.243,0,0,1-.374-.525.8.8,0,0,1,1.224-.981,1.718,1.718,0,0,1,.247.282,21.293,21.293,0,0,1,4.211,9.529c.063.364.193.471.548.467,1.577-.016,3.155-.017,4.732,0a1.216,1.216,0,0,1,.78.239.837.837,0,0,1,.2.749,1.131,1.131,0,0,1-.724.575,16.46,16.46,0,0,1-2.039.039c-1.053,0-2.106,0-3.165,0v1.549h.615c2.725,0,5.449-.011,8.173.015a1.349,1.349,0,0,1,.879.361.8.8,0,0,1,.055.777,1.111,1.111,0,0,1-.775.44c-1.4.043-2.8.021-4.193.021h-4.782l-.166,1.515c.2.011.388.029.575.029,1.452,0,2.9,0,4.355,0a3.656,3.656,0,0,1,.536.023.777.777,0,0,1,.723.8.767.767,0,0,1-.79.78c-.788.022-1.577.01-2.366.011-.968,0-1.936,0-2.9,0-.244,0-.426,0-.5.326a21.786,21.786,0,0,1-4.107,8.546.147.147,0,0,0-.026.064l2.861,2.847c1-.676,1.527-.628,2.413.257q3.518,3.515,7.034,7.033c.076.076.155.149.225.231a.817.817,0,0,1,.035,1.157.786.786,0,0,1-1.191-.04c-.569-.546-1.122-1.109-1.673-1.672-.312-.319-.607-.657-.876-.949l-3.41,3.386,5.722,5.714,3.406-3.422a6.546,6.546,0,0,1-.65-.542.788.788,0,0,1-.04-1.152.813.813,0,0,1,1.158,0c.014.012.027.024.04.036,1.2,1.108,1.824,1.852.114,3.42-.977.9-1.88,1.87-2.821,2.805a1.519,1.519,0,0,1-2.5-.028q-5.153-5.15-10.3-10.3a1.521,1.521,0,0,1-.249-2.356l-2.879-2.879a21.8,21.8,0,0,1-9.663,4.358c0,1.618,0,3.194,0,4.77,0,.2.007.395,0,.591a.8.8,0,1,1-1.6.026c-.028-.7-.01-1.4-.011-2.1,0-1,0-2,0-3.06l-1.539.11v.584q0,3.925,0,7.85c0,.23.034.529-.091.674a1.392,1.392,0,0,1-.787.5.673.673,0,0,1-.716-.658,4.135,4.135,0,0,1-.016-.537q0-3.9,0-7.8v-.632l-1.573-.125v2.1q0,1.371,0,2.742c0,.782-.263,1.144-.816,1.134-.533-.01-.8-.393-.8-1.168q0-2.231,0-4.463v-.6a20.543,20.543,0,0,1-5.749-1.993,21.558,21.558,0,0,1-11.815-17.475c-.018-.158-.061-.312-.092-.468v-2.9c.1-.723.191-1.448.313-2.167a21.767,21.767,0,0,1,16.69-17.616c1.1-.242,2.216-.365,3.324-.543Zm20.806,40.73-1.163-1.228-3.3,3.3,1.153,1.237Zm1.33,1.274-3.339,3.339.95.954,3.324-3.325Zm-5.94-1.548,1.028-1-2.741-2.745-1.028,1Z" transform="translate(0 0)" fill="url(#linear-gradient)"/>
      <path id="Path_8230" data-name="Path 8230" d="M924.47,104.8c9.818-.01,17.667,6.676,19.064,15.62a18.553,18.553,0,0,1-14.687,21.113,18.358,18.358,0,0,1-14.666-3.272c-.587-.416-.689-.94-.29-1.348.331-.339.721-.328,1.252.057a17.362,17.362,0,0,0,6.151,2.836,16.931,16.931,0,1,0-12.581-20.125,16.485,16.485,0,0,0,3.649,14.765,1.361,1.361,0,0,1,.3.905.8.8,0,0,1-.552.54,1.116,1.116,0,0,1-.835-.3,16.459,16.459,0,0,1-2.832-4.222A18.685,18.685,0,0,1,919.8,105.6,17.677,17.677,0,0,1,924.47,104.8Z" transform="translate(-3.181 -3.177)" fill="url(#linear-gradient)"/>
      <path id="Path_8231" data-name="Path 8231" d="M921.35,127.011v-.7q0-3.788,0-7.577c0-1.242.393-1.627,1.648-1.628q2.069,0,4.138,0h.666c0-.725,0-1.4,0-2.072,0-.286-.01-.574.017-.859a1.155,1.155,0,0,1,1.19-1.143q2.821-.033,5.642,0c.786.01,1.208.522,1.213,1.4.011,2.024,0,4.048,0,6.073v.686h1.676c1.093,0,2.185,0,3.278,0,1.062.005,1.491.434,1.5,1.508.007,1.218,0,2.436,0,3.654v.649c.4,0,.737-.016,1.072,0a.793.793,0,0,1,.051,1.584,4.135,4.135,0,0,1-.536.02q-11.07,0-22.141,0a3.957,3.957,0,0,1-.589-.027.742.742,0,0,1-.7-.8.731.731,0,0,1,.738-.767C920.569,126.99,920.925,127.011,921.35,127.011Zm8.114-12.344V127c1.423,0,2.8-.021,4.175.012.494.012.63-.134.627-.628-.02-3.706-.011-7.413-.012-11.12,0-.191-.017-.382-.028-.6Zm-1.661,4.1h-4.792V127c1.529,0,3.012.008,4.494-.017.1,0,.278-.244.283-.379.028-.733.014-1.467.014-2.2Zm12.872,8.2v-4.121h-4.762v4.121Z" transform="translate(-9.538 -7.255)" fill="url(#linear-gradient)"/>
      <path id="Path_8232" data-name="Path 8232" d="M934.16,154.637l2.167-5.828c.037-.1.081-.2.111-.3a.864.864,0,0,1,.809-.741c.485-.014.712.316.872.737.471,1.237.975,2.463,1.436,3.7a.61.61,0,0,0,.688.486c1.021-.032,2.043-.013,3.065-.01.671,0,1.04.3,1.033.819-.007.5-.362.791-1,.792-1.326,0-2.653-.008-3.979.006a.93.93,0,0,1-.976-.672c-.334-.882-.687-1.757-1.085-2.769-.167.43-.289.731-.4,1.036-.634,1.711-1.272,3.42-1.9,5.135-.158.435-.37.8-.888.786-.489-.016-.681-.375-.826-.793-.544-1.571-1.1-3.135-1.7-4.809-.305.537-.579.979-.814,1.442a1.063,1.063,0,0,1-1.068.647c-1.272-.021-2.545,0-3.818-.008-.635,0-1-.292-1.016-.786-.014-.511.371-.823,1.033-.825,1.04,0,2.079-.015,3.119.007a.641.641,0,0,0,.667-.4c.4-.761.839-1.5,1.25-2.254a.887.887,0,0,1,.872-.59c.445.034.635.337.769.717C933.089,151.615,933.6,153.063,934.16,154.637Z" transform="translate(-12.215 -24.494)" fill="url(#linear-gradient)"/>
    </g>
  </g>
</svg>
