<svg xmlns="http://www.w3.org/2000/svg" width="29.106" height="29.105" viewBox="0 0 29.106 29.105">
  <g id="analytical" transform="translate(-900.251 -98.392)">
    <path id="Path_8229" data-name="Path 8229" d="M912.528,98.392c.569.091,1.142.158,1.7.277a11.241,11.241,0,0,1,5.177,2.634c.25.221.295.467.129.666s-.433.2-.7-.031a10.074,10.074,0,0,0-4.971-2.47,10.4,10.4,0,0,0-10.691,4.147,10.128,10.128,0,0,0-2.064,6.788,10.654,10.654,0,0,0,21.1,1.515,10.372,10.372,0,0,0-1.93-8.406,2.757,2.757,0,0,1-.2-.277.42.42,0,0,1,.647-.519.911.911,0,0,1,.13.149,11.253,11.253,0,0,1,2.225,5.036c.033.193.1.249.289.247.834-.008,1.667-.009,2.5,0a.642.642,0,0,1,.412.126.443.443,0,0,1,.107.4.6.6,0,0,1-.383.3,8.7,8.7,0,0,1-1.078.021h-1.673v.819h.325c1.44,0,2.88-.006,4.319.008a.713.713,0,0,1,.465.191.426.426,0,0,1,.029.41.587.587,0,0,1-.41.232c-.738.023-1.477.011-2.216.011h-2.527l-.088.8c.106.006.205.015.3.015h2.3a1.932,1.932,0,0,1,.283.012.411.411,0,0,1,.382.422.406.406,0,0,1-.417.412c-.417.011-.834.005-1.25.006-.511,0-1.023,0-1.534,0-.129,0-.225,0-.265.172a11.514,11.514,0,0,1-2.171,4.517.078.078,0,0,0-.014.034l1.512,1.5c.527-.357.807-.332,1.275.136q1.859,1.858,3.718,3.717c.04.04.082.079.119.122a.432.432,0,0,1,.019.612.416.416,0,0,1-.63-.021c-.3-.288-.593-.586-.884-.884-.165-.169-.321-.347-.463-.5l-1.8,1.789,3.024,3.02,1.8-1.809a3.451,3.451,0,0,1-.344-.286.416.416,0,0,1-.021-.609.43.43,0,0,1,.612,0l.021.019c.636.586.964.979.06,1.807-.516.474-.994.989-1.491,1.483a.8.8,0,0,1-1.32-.015l-5.446-5.445a.8.8,0,0,1-.131-1.245l-1.521-1.522a11.523,11.523,0,0,1-5.107,2.3c0,.855,0,1.688,0,2.521,0,.1,0,.209,0,.312a.422.422,0,1,1-.845.014c-.015-.369-.005-.739-.006-1.108,0-.529,0-1.058,0-1.617l-.814.058v.308q0,2.074,0,4.149c0,.121.018.28-.048.356a.736.736,0,0,1-.416.266.356.356,0,0,1-.378-.348,2.195,2.195,0,0,1-.008-.284q0-2.06,0-4.12v-.334l-.831-.066v1.107q0,.725,0,1.449c0,.413-.139.6-.431.6s-.421-.207-.421-.617q0-1.179,0-2.359v-.317a10.857,10.857,0,0,1-3.038-1.054,11.393,11.393,0,0,1-6.244-9.236c-.009-.083-.032-.165-.048-.247v-1.535c.055-.382.1-.765.165-1.145a11.5,11.5,0,0,1,8.82-9.31c.579-.128,1.171-.193,1.757-.287Zm11,21.526-.615-.649-1.744,1.744.61.654Zm.7.673-1.765,1.765.5.5,1.757-1.757Zm-3.139-.818.544-.526-1.448-1.451-.543.53Z" transform="translate(0 0)" fill="#f3f6f9"/>
    <path id="Path_8230" data-name="Path 8230" d="M916.074,104.8a9.936,9.936,0,0,1,10.075,8.255,9.805,9.805,0,0,1-7.762,11.158,9.7,9.7,0,0,1-7.751-1.729c-.31-.22-.364-.5-.153-.713.175-.179.381-.173.662.03a9.176,9.176,0,0,0,3.251,1.5,8.948,8.948,0,1,0-6.649-10.636,8.712,8.712,0,0,0,1.929,7.8.72.72,0,0,1,.157.478.422.422,0,0,1-.292.285.59.59,0,0,1-.441-.158,8.7,8.7,0,0,1-1.5-2.231,9.875,9.875,0,0,1,6-13.615A9.342,9.342,0,0,1,916.074,104.8Z" transform="translate(-4.704 -4.699)" fill="#f3f6f9"/>
    <path id="Path_8231" data-name="Path 8231" d="M920.467,120.413v-.369q0-2,0-4c0-.656.208-.86.871-.86h2.539c0-.383,0-.739,0-1.1,0-.151-.005-.3.009-.454a.61.61,0,0,1,.629-.6q1.491-.018,2.982,0c.415.005.639.276.641.741.006,1.07,0,2.14,0,3.209v.362h.885c.578,0,1.155,0,1.733,0,.561,0,.788.229.791.8,0,.644,0,1.288,0,1.931v.343c.211,0,.39-.008.567,0a.419.419,0,0,1,.027.837,2.187,2.187,0,0,1-.283.01h-11.7a2.089,2.089,0,0,1-.311-.014.392.392,0,0,1-.372-.424.386.386,0,0,1,.39-.406C920.054,120.4,920.242,120.413,920.467,120.413Zm4.288-6.524v6.519c.752,0,1.479-.011,2.206.006.261.006.333-.071.332-.332-.011-1.959-.006-3.918-.006-5.877,0-.1-.009-.2-.015-.316Zm-.878,2.169h-2.532v4.348c.808,0,1.592,0,2.375-.009.053,0,.147-.129.15-.2.015-.387.007-.775.007-1.163Zm6.8,4.336v-2.178h-2.517v2.178Z" transform="translate(-14.106 -10.73)" fill="#f3f6f9"/>
    <path id="Path_8232" data-name="Path 8232" d="M929.781,151.4l1.145-3.08c.02-.053.043-.105.059-.16a.456.456,0,0,1,.427-.391c.256-.007.376.167.461.389.249.654.515,1.3.759,1.957a.322.322,0,0,0,.364.257c.54-.017,1.08-.007,1.62-.005.355,0,.55.158.546.433s-.192.418-.529.419c-.7,0-1.4,0-2.1,0a.492.492,0,0,1-.516-.355c-.176-.466-.363-.928-.573-1.464-.088.227-.153.386-.212.548-.335.9-.672,1.808-1,2.714-.084.23-.2.424-.469.415-.258-.009-.36-.2-.437-.419-.288-.83-.584-1.657-.9-2.542-.161.284-.306.517-.43.762a.562.562,0,0,1-.564.342c-.672-.011-1.345,0-2.018,0-.336,0-.53-.154-.537-.415s.2-.435.546-.436c.549,0,1.1-.008,1.648,0a.339.339,0,0,0,.352-.21c.211-.4.443-.793.661-1.191a.469.469,0,0,1,.461-.312c.235.018.336.178.406.379C929.215,149.8,929.487,150.565,929.781,151.4Z" transform="translate(-18.065 -36.225)" fill="#f3f6f9"/>
  </g>
</svg>
