<svg xmlns="http://www.w3.org/2000/svg" width="55.071" height="55.072" viewBox="0 0 55.071 55.072">
  <g id="industryreports" transform="translate(-673.409 -378.496)">
    <path id="Path_8809" data-name="Path 8809" d="M673.409,384.7h42.58a6.269,6.269,0,0,1,2.407-4.875,6.094,6.094,0,0,1,4.244-1.321,6.252,6.252,0,0,1,5.789,5.729c.24,3.214-1.876,5.89-5.314,6.636v.572q0,8.159-.006,16.32a1.028,1.028,0,0,0,.384.845c4.408,4.053,6.029,9.035,4.321,14.774a13.5,13.5,0,0,1-11.619,10.024,14.125,14.125,0,0,1-16.081-12.681c-.013-.145-.046-.288-.076-.47H673.409Zm26.642,33.74.206-1.758h-1.978V406.075h5.327v3.769c5.259-5.092,11.135-6.064,17.692-2.88V390.989l-2.89-1.212c-1.6,1.6-3.261,3.281-4.944,4.947a.739.739,0,0,0-.238.856,2.449,2.449,0,0,1-.915,2.765,2.5,2.5,0,0,1-2.863.268,2.36,2.36,0,0,1-1.383-2.549,1.651,1.651,0,0,0-.732-1.9,5.468,5.468,0,0,1-.511-.51.641.641,0,0,0-.714-.208,4.116,4.116,0,0,1-1.519,0,.675.675,0,0,0-.715.208q-1.895,1.914-3.809,3.806a.61.61,0,0,0-.173.72,2.62,2.62,0,0,1-1.214,3.051,2.664,2.664,0,0,1-3.615-3.665,2.61,2.61,0,0,1,3.012-1.187.65.65,0,0,0,.767-.192q1.845-1.884,3.73-3.728a.74.74,0,0,0,.228-.86,2.45,2.45,0,0,1,.921-2.763,2.509,2.509,0,0,1,2.864-.262,2.359,2.359,0,0,1,1.378,2.552c-.272.947.182,1.385.739,1.894a6.021,6.021,0,0,1,.508.512.633.633,0,0,0,.716.2,3.793,3.793,0,0,1,1.466-.009.756.756,0,0,0,.808-.238c1.574-1.592,3.162-3.17,4.743-4.754.1-.1.191-.213.261-.293a9.178,9.178,0,0,1-.719-1.414c-.149-.474-.4-.549-.84-.548q-19.928.014-39.857.008h-.6v31.955Zm21.416,6.114a8.974,8.974,0,0,1-14.474.005l-3.066,1.774a12.483,12.483,0,0,0,20.607,0ZM713.321,407a12.351,12.351,0,0,0-10.227,17.76l3.033-1.752a8.731,8.731,0,0,1,.438-8.108,8.819,8.819,0,0,1,6.756-4.4Zm1.82,0v3.5a8.935,8.935,0,0,1,7.2,12.5l3.034,1.75A12.354,12.354,0,0,0,715.141,407Zm6.2,12.33a7.106,7.106,0,1,0-7.068,7.131A7.126,7.126,0,0,0,721.337,419.331Zm5.329-34.6a4.44,4.44,0,1,0-4.478,4.417A4.451,4.451,0,0,0,726.666,384.735Zm-26.624,30.307c.329-.149.674-.193.75-.36a7.045,7.045,0,0,0,1.013-4.157,7.44,7.44,0,0,1-.01-1.217v-1.457h-1.754Zm5.315-23.228a.884.884,0,1,0-.893-.876A.894.894,0,0,0,705.357,391.814Zm6.2,4.423a.884.884,0,1,0-.863.906A.894.894,0,0,0,711.562,396.238Zm-13.325,2.685a.884.884,0,1,0-.882.886A.893.893,0,0,0,698.237,398.923Z" fill="#3971c1"/>
    <path id="Path_8810" data-name="Path 8810" d="M695.256,415.084H690V400.941h5.26ZM691.781,402.7v10.59h1.711V402.7Z" transform="translate(1.17 1.583)" fill="#3971c1"/>
    <path id="Path_8811" data-name="Path 8811" d="M681.981,414.733h-5.262v-8.814h5.262Zm-3.476-7.057v5.261h1.71v-5.261Z" transform="translate(0.233 1.934)" fill="#3971c1"/>
    <path id="Path_8812" data-name="Path 8812" d="M688.628,414.616h-5.26v-7.047h5.26Zm-3.484-5.281v3.483h1.707v-3.483Z" transform="translate(0.702 2.05)" fill="#3971c1"/>
    <path id="Path_8813" data-name="Path 8813" d="M692.409,389.386H680.052v-1.729h12.357Z" transform="translate(0.468 0.646)" fill="#3971c1"/>
    <path id="Path_8814" data-name="Path 8814" d="M680.032,392.689v-1.714h12.38v1.714Z" transform="translate(0.467 0.88)" fill="#3971c1"/>
    <path id="Path_8815" data-name="Path 8815" d="M680.042,394.285H692.4V396h-12.36Z" transform="translate(0.468 1.113)" fill="#3971c1"/>
    <path id="Path_8816" data-name="Path 8816" d="M680.046,397.6h12.37v1.71h-12.37Z" transform="translate(0.468 1.347)" fill="#3971c1"/>
    <path id="Path_8817" data-name="Path 8817" d="M678.441,387.649v1.709h-1.718v-1.709Z" transform="translate(0.234 0.645)" fill="#3971c1"/>
    <path id="Path_8818" data-name="Path 8818" d="M678.446,390.981v1.7h-1.728v-1.7Z" transform="translate(0.233 0.88)" fill="#3971c1"/>
    <path id="Path_8819" data-name="Path 8819" d="M676.732,394.28h1.7v1.727h-1.7Z" transform="translate(0.234 1.113)" fill="#3971c1"/>
    <path id="Path_8820" data-name="Path 8820" d="M678.445,397.6v1.714h-1.724V397.6Z" transform="translate(0.234 1.347)" fill="#3971c1"/>
    <path id="Path_8821" data-name="Path 8821" d="M717.221,417.049a5.328,5.328,0,1,1-5.293-5.362A5.343,5.343,0,0,1,717.221,417.049Zm-1.776-.026a3.552,3.552,0,1,0-3.574,3.543A3.559,3.559,0,0,0,715.445,417.024Z" transform="translate(2.338 2.341)" fill="#3971c1"/>
  </g>
</svg>
