<svg xmlns="http://www.w3.org/2000/svg" width="14.221" height="16.175" viewBox="0 0 14.221 16.175">
  <g id="manageprofile" transform="translate(-1624.037 -343.614)">
    <path id="Path_8760" data-name="Path 8760" d="M1624.387,366.163a.61.61,0,0,1-.35-.652,6.235,6.235,0,0,1,5.127-5.95,7.707,7.707,0,0,1,1.082-.091c.637-.014,1.275-.022,1.911,0a6.241,6.241,0,0,1,6.1,6.057.592.592,0,0,1-.349.636Zm12.909-.954c-.041-.238-.072-.456-.116-.672a5.237,5.237,0,0,0-4.968-4.12c-.711-.01-1.421-.012-2.132,0a4.423,4.423,0,0,0-.923.1,5.169,5.169,0,0,0-3.964,3.709,9.865,9.865,0,0,0-.2.975Z" transform="translate(0 -6.374)" fill="#447bc8"/>
    <path id="Path_8761" data-name="Path 8761" d="M1633.065,352.144a4.265,4.265,0,1,1,4.263-4.259A4.273,4.273,0,0,1,1633.065,352.144Zm-.013-.948a3.317,3.317,0,1,0-3.306-3.325A3.322,3.322,0,0,0,1633.052,351.2Z" transform="translate(-1.916)" fill="#447bc8"/>
  </g>
</svg>
