<svg id="notificationicon" xmlns="http://www.w3.org/2000/svg" xmlns:xlink="http://www.w3.org/1999/xlink" width="14.557" height="16.561" viewBox="0 0 14.557 16.561">
  <defs>
    <linearGradient id="linear-gradient" x1="0.5" x2="0.5" y2="1" gradientUnits="objectBoundingBox">
      <stop offset="0" stop-color="#3b76c9"/>
      <stop offset="1" stop-color="#376dba"/>
    </linearGradient>
  </defs>
  <path id="Path_475" data-name="Path 475" d="M433.439,204.75a3.957,3.957,0,0,1,.671.3,1.345,1.345,0,0,1,.588,1.115c.01.242,0,.485,0,.727.229.094.459.171.672.279a4.945,4.945,0,0,1,2.884,4.483c.023.571,0,1.144.035,1.713a7.338,7.338,0,0,0,1.436,3.9c.19.261.406.5.619.745a.5.5,0,0,1-.39.873q-6.712,0-13.423,0a.508.508,0,0,1-.525-.3.5.5,0,0,1,.137-.574,7.387,7.387,0,0,0,1.931-3.755,13.046,13.046,0,0,0,.151-1.589,16.794,16.794,0,0,1,.075-1.725,4.909,4.909,0,0,1,3.337-3.992c.045-.017.091-.031.149-.05,0-.209,0-.419,0-.628a1.45,1.45,0,0,1,1.2-1.5.361.361,0,0,0,.059-.025Zm-.673,1.951h.964c0-.138,0-.271,0-.4a1.205,1.205,0,0,0,0-.145.492.492,0,0,0-.469-.43.476.476,0,0,0-.488.4A5.2,5.2,0,0,0,432.766,206.7Z" transform="translate(-425.966 -204.75)" opacity="0.89" fill="url(#linear-gradient)"/>
  <path id="Path_476" data-name="Path 476" d="M545.491,556.63a2.928,2.928,0,0,1-1.037-.377,2.477,2.477,0,0,1-.853-.929c-.022-.041-.036-.086-.059-.141h4.452a6.835,6.835,0,0,1-.382.568,2.351,2.351,0,0,1-1.511.852.616.616,0,0,0-.091.028Z" transform="translate(-538.47 -540.069)" fill="url(#linear-gradient)"/>
  <path id="Path_477" data-name="Path 477" d="M425.991,248.513a7.21,7.21,0,0,1,2.1-4.888.493.493,0,0,1,.708-.04.487.487,0,0,1-.006.708,6.289,6.289,0,0,0-1.83,4.307c0,.065,0,.13-.006.194a.484.484,0,0,1-.966-.044C425.988,248.685,425.991,248.621,425.991,248.513Z" transform="translate(-425.989 -241.785)" fill="url(#linear-gradient)"/>
  <path id="Path_478" data-name="Path 478" d="M697.863,248.528c0,.054,0,.108,0,.162a.489.489,0,0,1-.486.515.484.484,0,0,1-.483-.5,6.5,6.5,0,0,0-.239-1.706,6.3,6.3,0,0,0-1.542-2.671.794.794,0,0,1-.187-.293.458.458,0,0,1,.226-.537.488.488,0,0,1,.593.092,7.25,7.25,0,0,1,2.118,4.94Z" transform="translate(-683.307 -241.765)" fill="url(#linear-gradient)"/>
</svg>
