<svg xmlns="http://www.w3.org/2000/svg" width="17.97" height="21.561" viewBox="0 0 17.97 21.561">
  <g id="notification" transform="translate(-1201.011 26.405)">
    <path id="Path_8756" data-name="Path 8756" d="M1210.248-26.4c.113.033.229.062.34.1a1.809,1.809,0,0,1,1.206,1.73c.006.309.009.618,0,.926a.232.232,0,0,0,.19.267,6.217,6.217,0,0,1,4.083,4.332,6.26,6.26,0,0,1,.216,1.748c0,1.038-.028,2.079.037,3.114a5.988,5.988,0,0,0,1.974,4.083c.092.087.19.167.279.256a1.326,1.326,0,0,1,.3,1.475,1.286,1.286,0,0,1-1.234.829c-1.453.011-2.905,0-4.358,0h-.166a3.172,3.172,0,0,1-1.456,2.215,3.061,3.061,0,0,1-1.865.475,3.191,3.191,0,0,1-2.927-2.689h-.222c-1.418,0-2.835,0-4.253,0a1.335,1.335,0,0,1-1.272-1.854,1.685,1.685,0,0,1,.424-.564,6.208,6.208,0,0,0,2.063-3.666,7.843,7.843,0,0,0,.1-1.193c.015-.933-.006-1.867.012-2.8a6.262,6.262,0,0,1,4.23-5.744.3.3,0,0,0,.252-.35,7.858,7.858,0,0,1,.015-1.072,1.761,1.761,0,0,1,1.431-1.585.7.7,0,0,0,.1-.037ZM1210-8.435v-.011q1.347,0,2.694,0,2.41,0,4.819.011a.494.494,0,0,0,.531-.291c.083-.2.025-.373-.2-.57a7.119,7.119,0,0,1-2.465-5.566c0-.828,0-1.656,0-2.484a6.09,6.09,0,0,0-.053-.839,5.386,5.386,0,0,0-6.722-4.443,5.389,5.389,0,0,0-4,5.083c-.013,1.01.014,2.021-.011,3.031a6.9,6.9,0,0,1-1.541,4.25c-.292.365-.644.682-.972,1.017a.455.455,0,0,0-.143.511.451.451,0,0,0,.441.3c.07,0,.14,0,.21,0Zm-2.183.9a2.226,2.226,0,0,0,2.19,1.791,2.212,2.212,0,0,0,2.161-1.791Zm3.064-16.153c0-.033.008-.067.008-.1,0-.3.009-.6-.007-.9a.884.884,0,0,0-.841-.817.871.871,0,0,0-.915.7,9.692,9.692,0,0,0-.009,1.117Z" transform="translate(0 0)" fill="#3c3c3c"/>
  </g>
</svg>
