<svg xmlns="http://www.w3.org/2000/svg" width="28.701" height="28.536" viewBox="0 0 28.701 28.536">
  <g id="operational" transform="translate(-378.098 -254.763)">
    <path id="Path_8778" data-name="Path 8778" d="M378.1,263.3a7.7,7.7,0,0,1,.54-.7c.563-.586,1.157-1.142,1.715-1.733a1.466,1.466,0,0,1,1.164-.489c1.765.019,3.531.007,5.3.007h.3c.266-.906.319-.945,1.274-.945.613,0,.613,0,.867-.649-.227-.214-.477-.438-.713-.676a.726.726,0,0,1-.058-1.1,10.423,10.423,0,0,1,.951-.946.719.719,0,0,1,1.035.036c.212.2.417.4.614.614.1.1.184.14.312.06a.736.736,0,0,1,.231-.1c.182-.039.226-.146.217-.321-.015-.27-.009-.542,0-.813a.73.73,0,0,1,.723-.771c.437-.021.876-.022,1.313,0a.74.74,0,0,1,.754.8,5.7,5.7,0,0,1,0,.7c-.024.243.065.346.291.447a.414.414,0,0,0,.589-.122,4.731,4.731,0,0,1,.473-.477.722.722,0,0,1,1.055-.051,10.815,10.815,0,0,1,.968.968.726.726,0,0,1-.04,1.036c-.2.212-.4.418-.615.613a.219.219,0,0,0-.057.312,2.579,2.579,0,0,0,.124.279.372.372,0,0,0,.219.149,5.388,5.388,0,0,0,.588.007c.8,0,.958.13,1.116.946.135,0,.28-.006.425,0a.419.419,0,0,1,.445.436.413.413,0,0,1-.447.4c-.13.005-.26,0-.421,0-.017.115-.034.221-.048.328a.734.734,0,0,1-.73.676c-.3.011-.6.01-.9,0a.234.234,0,0,0-.266.177c-.175.451-.181.449.159.789.138.139.282.274.414.418a.713.713,0,0,1,.052.991,10.813,10.813,0,0,1-1.028,1.027.7.7,0,0,1-.99-.051q-.318-.295-.614-.614a.246.246,0,0,0-.336-.065c-.423.2-.427.187-.427.658,0,.2.007.393,0,.589a.711.711,0,0,1-.69.741,10.7,10.7,0,0,1-1.4,0,.716.716,0,0,1-.7-.785,5.9,5.9,0,0,1,0-.7c.024-.242-.04-.391-.294-.44a1.723,1.723,0,0,1-.3-.121c-.006.124-.014.221-.014.318q0,1.3,0,2.606c0,.065,0,.131,0,.2-.009.336-.157.513-.424.509s-.412-.186-.414-.523c0-.607,0-1.214,0-1.822v-.478c-.562.349-.928.034-1.278-.31a9.133,9.133,0,0,1-.668-.716.717.717,0,0,1,.043-1.014c.2-.219.43-.417.626-.642a.331.331,0,0,0,.049-.28c-.174-.46-.18-.457-.686-.457-.178,0-.355,0-.532,0a.74.74,0,0,1-.78-.715c-.008-.065-.017-.129-.028-.194a.7.7,0,0,0-.034-.1h-.441c-1.738,0-3.475,0-5.213.008a.7.7,0,0,0-.434.179q-.968.934-1.9,1.9a.651.651,0,0,0-.169.41q-.013,5.871-.01,11.743c0,.206.024.332.283.331,2.569-.007,5.138,0,7.707-.005.045,0,.09-.008.145-.014a3.81,3.81,0,0,1,3.323-3.878c0-.515,0-1.045,0-1.575a2.624,2.624,0,0,1,.009-.336.4.4,0,0,1,.44-.376.38.38,0,0,1,.385.4c.01.523.005,1.046.007,1.569,0,.1,0,.2,0,.329.168.04.329.076.488.117a3.705,3.705,0,0,1-1.215,7.285,3.6,3.6,0,0,1-3.189-2.451c-.071-.183-.149-.244-.337-.234-.287.016-.575,0-.87,0-.056.35.079.833-.454.826-.513-.007-.374-.479-.431-.826h-.332c-1.831,0-3.662-.016-5.493.009a1.231,1.231,0,0,1-1.3-.733Zm18.435-6.593c-.261.279-.48.521-.705.755a.76.76,0,0,1-.922.172c-.2-.085-.395-.166-.593-.246a.736.736,0,0,1-.525-.772c0-.325,0-.651,0-1.008h-1.112c0,.369,0,.7,0,1.039a.729.729,0,0,1-.5.73c-.156.061-.314.12-.466.189a.825.825,0,0,1-1.173-.2c-.2-.2-.392-.417-.585-.624l-.843.8c.279.266.525.494.763.73a.75.75,0,0,1,.158.9c-.084.2-.169.394-.249.593a.729.729,0,0,1-.768.527c-.326,0-.651,0-1.009,0v1.111c.342,0,.658,0,.975,0a.759.759,0,0,1,.811.553c.072.182.146.363.224.542a.759.759,0,0,1-.177.966c-.23.231-.473.448-.728.689l.811.838c.146-.165.255-.292.369-.413s.249-.253.377-.376a.746.746,0,0,1,.877-.152c.2.083.393.17.592.249a.745.745,0,0,1,.544.787c0,.325,0,.649,0,.993h1.112c0-.369,0-.7,0-1.04a.727.727,0,0,1,.508-.727c.182-.071.364-.142.543-.222a.774.774,0,0,1,1.034.186c.222.222.436.451.649.673l.832-.8c-.274-.26-.522-.486-.76-.723a.754.754,0,0,1-.157-.9c.08-.188.16-.377.235-.568a.764.764,0,0,1,.808-.559c.323,0,.646,0,.986,0V260.28c-.356,0-.682,0-1.007,0a.738.738,0,0,1-.784-.547c-.068-.173-.136-.347-.212-.517a.762.762,0,0,1,.188-1.009c.225-.219.469-.418.741-.659Zm-5.715,16.05a2.867,2.867,0,1,0,2.861,2.876A2.862,2.862,0,0,0,390.818,272.754Z" transform="translate(0 0)" fill="#f3f6f9"/>
    <path id="Path_8779" data-name="Path 8779" d="M436.323,292.377h.342q1.92,0,3.84,0c.691,0,.917.231.917.929q0,1.345,0,2.69c0,.583-.254.842-.831.843q-1.948,0-3.9,0h-.33v.845h4.175c.63,0,.882.253.882.882q0,1.387,0,2.774a.721.721,0,0,1-.808.813c-.383,0-.766,0-1.149,0-.3,0-.481-.174-.474-.432a.42.42,0,0,1,.473-.405c.362-.005.724,0,1.1,0v-2.772h-9.281v2.772h5.9c.065,0,.131,0,.2,0,.3.009.485.172.479.429a.42.42,0,0,1-.469.41c-.335.005-.671,0-1.026,0V303h4.208c.593,0,.852.259.853.852q0,1.4,0,2.8a.723.723,0,0,1-.808.816q-4.694,0-9.388,0a.713.713,0,0,1-.8-.8c0-.206,0-.411,0-.616s.031-.4-.222-.536a.372.372,0,0,1,.046-.617.334.334,0,0,0,.177-.362c-.007-.233,0-.467,0-.7,0-.58.259-.84.834-.841q1.948,0,3.9,0h.322v-.843h-.312q-1.947,0-3.9,0c-.583,0-.842-.256-.843-.83q0-1.416,0-2.831a.716.716,0,0,1,.812-.808c1.3,0,2.6,0,3.9,0h.346v-.845h-4.141c-.687,0-.912-.222-.912-.9q0-1.331,0-2.662c0-.674.229-.9.914-.9q1.92,0,3.839,0h.318c0-.294,0-.562,0-.83.007-.332.163-.511.431-.505s.4.174.407.5c0,.14,0,.28,0,.42S436.33,292.216,436.323,292.377Zm-5.043,14.231h9.282v-2.75H431.28Zm0-10.63h9.283v-2.743h-9.283Z" transform="translate(-34.623 -24.172)" fill="#f3f6f9"/>
    <path id="Path_8780" data-name="Path 8780" d="M440.62,317.229c-.961,0-1.922,0-2.883,0a1.027,1.027,0,0,1-.33-.041.341.341,0,0,1-.252-.436.915.915,0,0,1,.337-.349c.055-.041.163-.014.247-.014h5.794a1.619,1.619,0,0,1,.251.009.41.41,0,0,1,.076.79,1.068,1.068,0,0,1-.33.04C442.56,317.231,441.59,317.229,440.62,317.229Z" transform="translate(-39.335 -41.054)" fill="#f3f6f9"/>
    <path id="Path_8781" data-name="Path 8781" d="M391.126,284.226c-.943,0-1.886,0-2.828,0-.333,0-.518-.189-.484-.471.028-.236.2-.365.511-.367.691,0,1.381,0,2.072,0,1.176,0,2.352-.007,3.528.008a.708.708,0,0,1,.458.191.417.417,0,0,1,.029.4.575.575,0,0,1-.4.228c-.737.023-1.474.011-2.212.011Z" transform="translate(-6.471 -19.07)" fill="#f3f6f9"/>
    <path id="Path_8782" data-name="Path 8782" d="M391.155,295.588c.943,0,1.885,0,2.828,0,.384,0,.619.315.435.6a.575.575,0,0,1-.405.232c-1.914.015-3.827.013-5.74.008a.412.412,0,0,1-.459-.42c0-.262.169-.415.485-.416C389.251,295.586,390.2,295.588,391.155,295.588Z" transform="translate(-6.474 -27.2)" fill="#f3f6f9"/>
    <path id="Path_8783" data-name="Path 8783" d="M391.115,302.531c-.933,0-1.867,0-2.8,0a.462.462,0,0,1-.472-.23.416.416,0,0,1,.361-.606c.176-.017.354-.006.532-.006H393.8a1.948,1.948,0,0,1,.279.008.417.417,0,0,1,.378.444.4.4,0,0,1-.405.385c-.084,0-.168,0-.252,0Z" transform="translate(-6.46 -31.265)" fill="#f3f6f9"/>
    <path id="Path_8784" data-name="Path 8784" d="M391.162,289.516h2.744c.374,0,.576.152.571.422s-.2.417-.556.417q-2.785,0-5.571,0c-.365,0-.555-.171-.535-.458.017-.245.182-.379.492-.38C389.258,289.514,390.21,289.516,391.162,289.516Z" transform="translate(-6.473 -23.155)" fill="#f3f6f9"/>
    <path id="Path_8785" data-name="Path 8785" d="M389.539,307.824c.411,0,.822,0,1.232,0,.319,0,.484.155.481.42a.411.411,0,0,1-.464.415q-1.26.011-2.521,0a.407.407,0,0,1-.453-.425c0-.254.164-.4.464-.409C388.7,307.819,389.118,307.824,389.539,307.824Z" transform="translate(-6.474 -35.352)" fill="#f3f6f9"/>
    <path id="Path_8786" data-name="Path 8786" d="M400.991,331.518a.422.422,0,0,1-.53.467,1.1,1.1,0,0,1-.741-.772.374.374,0,0,1,.212-.466.4.4,0,0,1,.506.1c.139.144.284.283.413.435A1.306,1.306,0,0,1,400.991,331.518Z" transform="translate(-14.394 -50.594)" fill="#f3f6f9"/>
    <path id="Path_8787" data-name="Path 8787" d="M446.879,273.431c-.054.333-.2.525-.446.543s-.405-.151-.456-.457a1.348,1.348,0,0,0-.124-.36.42.42,0,0,1,.119-.568.393.393,0,0,1,.566.1A6.121,6.121,0,0,1,446.879,273.431Z" transform="translate(-45.104 -11.826)" fill="#f3f6f9"/>
    <path id="Path_8788" data-name="Path 8788" d="M447.2,279.375a3.367,3.367,0,0,1,0,.389.372.372,0,0,1-.375.346.361.361,0,0,1-.424-.316,4.156,4.156,0,0,1,0-.859.358.358,0,0,1,.422-.318.374.374,0,0,1,.382.368c.013.128,0,.26,0,.39Z" transform="translate(-45.489 -15.893)" fill="#f3f6f9"/>
    <path id="Path_8789" data-name="Path 8789" d="M447.2,285.586a3.168,3.168,0,0,1,0,.39.375.375,0,0,1-.4.35.355.355,0,0,1-.4-.314,4.371,4.371,0,0,1,.005-.886.35.35,0,0,1,.411-.294.367.367,0,0,1,.38.338,3.163,3.163,0,0,1,0,.417Z" transform="translate(-45.496 -20.034)" fill="#f3f6f9"/>
    <path id="Path_8790" data-name="Path 8790" d="M399.546,325.263a3.04,3.04,0,0,1,0-.39.376.376,0,0,1,.4-.353.365.365,0,0,1,.408.338,4.4,4.4,0,0,1,0,.807.374.374,0,0,1-.424.355.381.381,0,0,1-.387-.367,3.71,3.71,0,0,1,0-.39Z" transform="translate(-14.286 -46.477)" fill="#f3f6f9"/>
    <path id="Path_8791" data-name="Path 8791" d="M405.99,333.134a3.223,3.223,0,0,1-.389,0,.369.369,0,0,1-.346-.373.36.36,0,0,1,.313-.426,4.056,4.056,0,0,1,.859,0,.36.36,0,0,1,.32.421.375.375,0,0,1-.367.384c-.129.012-.26,0-.39,0Z" transform="translate(-18.093 -51.666)" fill="#f3f6f9"/>
    <path id="Path_8792" data-name="Path 8792" d="M412.236,333.134a3.7,3.7,0,0,1-.417,0,.369.369,0,0,1-.349-.37.358.358,0,0,1,.309-.428,4.037,4.037,0,0,1,.859,0,.36.36,0,0,1,.323.418.375.375,0,0,1-.363.387,3.445,3.445,0,0,1-.362,0Z" transform="translate(-22.234 -51.667)" fill="#f3f6f9"/>
    <path id="Path_8793" data-name="Path 8793" d="M418.4,333.14a3.28,3.28,0,0,1-.362,0,.372.372,0,0,1-.357-.363.356.356,0,0,1,.3-.434,3.929,3.929,0,0,1,.885,0,.356.356,0,0,1,.3.431.37.37,0,0,1-.352.367A3.948,3.948,0,0,1,418.4,333.14Z" transform="translate(-26.374 -51.671)" fill="#f3f6f9"/>
    <path id="Path_8794" data-name="Path 8794" d="M424.626,333.136c-.12,0-.242.01-.362,0a.375.375,0,0,1-.365-.385.36.36,0,0,1,.321-.42,4.084,4.084,0,0,1,.859,0,.359.359,0,0,1,.312.426.369.369,0,0,1-.347.372,3.546,3.546,0,0,1-.417,0Z" transform="translate(-30.516 -51.667)" fill="#f3f6f9"/>
    <path id="Path_8795" data-name="Path 8795" d="M417.256,270a2.825,2.825,0,0,1-2.491-1.78,2.78,2.78,0,0,1,.488-3.132,2.839,2.839,0,0,1,3.1-.883c.372.1.506.3.426.567s-.3.343-.666.235a2.123,2.123,0,1,0-1.259,4.056,2.012,2.012,0,0,0,2.135-.543,2.044,2.044,0,0,0,.5-2.173c-.137-.436-.086-.651.2-.742.271-.085.453.06.6.476A3,3,0,0,1,417.256,270Z" transform="translate(-24.246 -6.202)" fill="#f3f6f9"/>
    <path id="Path_8796" data-name="Path 8796" d="M422.146,270.378a1.3,1.3,0,1,1-1.285-1.307A1.29,1.29,0,0,1,422.146,270.378Zm-1.294-.465a.457.457,0,1,0,.452.462A.447.447,0,0,0,420.852,269.913Z" transform="translate(-27.618 -9.533)" fill="#f3f6f9"/>
    <path id="Path_8797" data-name="Path 8797" d="M412.144,315.248,413.395,314a1.776,1.776,0,0,1,.2-.193.4.4,0,0,1,.558.03.369.369,0,0,1,.023.553q-.857.886-1.741,1.744a.372.372,0,0,1-.555-.008q-.654-.633-1.288-1.287a.407.407,0,0,1-.01-.58.4.4,0,0,1,.6-.006c.167.149.322.311.477.473S411.965,315.053,412.144,315.248Z" transform="translate(-21.568 -39.271)" fill="#f3f6f9"/>
    <path id="Path_8798" data-name="Path 8798" d="M440.639,333.133h-2.855a1.8,1.8,0,0,1-.307-.015.372.372,0,0,1-.327-.365.376.376,0,0,1,.284-.426,1.209,1.209,0,0,1,.332-.032q2.882,0,5.765,0a1.283,1.283,0,0,1,.278.019.38.38,0,0,1,.327.422.375.375,0,0,1-.363.389,3.561,3.561,0,0,1-.391.009Z" transform="translate(-39.344 -51.656)" fill="#f3f6f9"/>
    <path id="Path_8799" data-name="Path 8799" d="M440.631,300.484H443.6c.351,0,.539.152.534.425s-.19.414-.522.414q-2.967,0-5.935,0c-.345,0-.542-.163-.537-.431s.193-.408.526-.409Q439.147,300.483,440.631,300.484Z" transform="translate(-39.337 -30.463)" fill="#f3f6f9"/>
  </g>
</svg>
