<svg xmlns="http://www.w3.org/2000/svg" width="55.39" height="55.072" viewBox="0 0 55.39 55.072">
  <g id="operationalreports" transform="translate(-378.098 -254.763)">
    <path id="Path_8778" data-name="Path 8778" d="M378.1,271.233a14.856,14.856,0,0,1,1.041-1.348c1.087-1.13,2.233-2.2,3.31-3.345a2.829,2.829,0,0,1,2.246-.944c3.407.036,6.815.014,10.222.014h.571c.514-1.749.616-1.823,2.459-1.823,1.184,0,1.184,0,1.673-1.253-.438-.413-.921-.845-1.376-1.3a1.4,1.4,0,0,1-.111-2.114,20.119,20.119,0,0,1,1.835-1.827,1.387,1.387,0,0,1,2,.07c.409.38.8.777,1.185,1.185.187.2.355.271.6.115a1.421,1.421,0,0,1,.445-.189c.351-.075.437-.281.418-.62-.028-.521-.018-1.045,0-1.568a1.408,1.408,0,0,1,1.4-1.487c.843-.041,1.691-.043,2.534,0a1.428,1.428,0,0,1,1.455,1.544,10.988,10.988,0,0,1-.007,1.351c-.046.469.126.667.562.862a.8.8,0,0,0,1.137-.236,9.129,9.129,0,0,1,.913-.921,1.394,1.394,0,0,1,2.036-.1,20.873,20.873,0,0,1,1.868,1.868,1.4,1.4,0,0,1-.077,2c-.381.409-.775.806-1.186,1.184a.423.423,0,0,0-.109.6,4.983,4.983,0,0,0,.24.539.719.719,0,0,0,.422.288,10.4,10.4,0,0,0,1.134.014c1.541,0,1.85.252,2.154,1.825.26,0,.54-.012.82,0a.809.809,0,0,1,.858.84.8.8,0,0,1-.862.776c-.251.01-.5,0-.812,0-.033.222-.066.427-.093.632a1.417,1.417,0,0,1-1.409,1.306c-.576.021-1.154.02-1.73,0a.452.452,0,0,0-.513.342c-.337.871-.349.866.307,1.523.267.269.544.528.8.807a1.376,1.376,0,0,1,.1,1.913,20.877,20.877,0,0,1-1.983,1.982,1.347,1.347,0,0,1-1.91-.1q-.614-.569-1.185-1.185a.475.475,0,0,0-.649-.125c-.817.377-.824.361-.824,1.27,0,.379.014.758-.006,1.136a1.373,1.373,0,0,1-1.332,1.43,20.652,20.652,0,0,1-2.693,0,1.382,1.382,0,0,1-1.356-1.515,11.4,11.4,0,0,1,.008-1.351c.046-.468-.078-.754-.567-.848a3.324,3.324,0,0,1-.571-.234c-.011.24-.028.426-.028.613q0,2.515,0,5.029c0,.126,0,.252,0,.379-.017.648-.3.991-.819.983s-.8-.359-.8-1.009c-.008-1.172,0-2.344,0-3.516v-.922c-1.085.674-1.792.066-2.466-.6a17.629,17.629,0,0,1-1.289-1.382,1.384,1.384,0,0,1,.084-1.957c.392-.423.829-.805,1.208-1.239a.638.638,0,0,0,.1-.541c-.335-.887-.348-.882-1.324-.882-.343,0-.685.006-1.027,0a1.429,1.429,0,0,1-1.505-1.38c-.015-.125-.032-.25-.055-.374a1.357,1.357,0,0,0-.066-.187h-.851c-3.354,0-6.707-.008-10.06.015a1.341,1.341,0,0,0-.838.345q-1.868,1.8-3.672,3.671a1.256,1.256,0,0,0-.327.791q-.026,11.331-.019,22.662c0,.4.047.64.545.639,4.958-.014,9.916-.008,14.874-.01.088,0,.175-.016.28-.026.2-4.124,2.329-6.6,6.414-7.485,0-.994,0-2.017,0-3.04a5.048,5.048,0,0,1,.018-.648.773.773,0,0,1,.849-.726.734.734,0,0,1,.743.773c.019,1.009.01,2.019.013,3.028,0,.2,0,.395,0,.636.325.078.634.147.942.227a7.151,7.151,0,0,1-2.346,14.059,6.957,6.957,0,0,1-6.155-4.729c-.138-.354-.287-.471-.65-.451-.554.03-1.11.008-1.679.008-.108.676.153,1.608-.875,1.595-.989-.013-.723-.924-.831-1.595h-.641c-3.534,0-7.068-.03-10.6.017a2.376,2.376,0,0,1-2.516-1.415Zm35.577-12.723c-.5.539-.926,1-1.362,1.456a1.467,1.467,0,0,1-1.779.332c-.379-.164-.762-.321-1.145-.475a1.42,1.42,0,0,1-1.013-1.489c-.007-.628,0-1.256,0-1.945h-2.146c0,.712,0,1.358,0,2a1.407,1.407,0,0,1-.973,1.409c-.3.117-.605.231-.9.364a1.592,1.592,0,0,1-2.263-.394c-.388-.393-.757-.805-1.13-1.205l-1.627,1.537c.538.513,1.013.954,1.473,1.408a1.447,1.447,0,0,1,.3,1.736c-.162.38-.325.76-.48,1.144a1.406,1.406,0,0,1-1.481,1.018c-.629.007-1.257,0-1.948,0v2.145c.66,0,1.271,0,1.881,0a1.466,1.466,0,0,1,1.566,1.068c.138.351.281.7.433,1.046a1.465,1.465,0,0,1-.341,1.865c-.444.445-.912.865-1.405,1.329l1.564,1.617c.283-.318.491-.564.713-.8s.481-.488.727-.726a1.439,1.439,0,0,1,1.692-.294c.381.161.759.327,1.143.48a1.439,1.439,0,0,1,1.05,1.518c.006.627,0,1.253,0,1.916h2.145c0-.712,0-1.359,0-2.007a1.4,1.4,0,0,1,.98-1.4c.352-.137.7-.274,1.048-.428a1.494,1.494,0,0,1,1.995.359c.428.428.841.871,1.253,1.3l1.6-1.536c-.529-.5-1.007-.938-1.466-1.394a1.454,1.454,0,0,1-.3-1.738c.155-.363.309-.728.453-1.1a1.474,1.474,0,0,1,1.56-1.079c.623,0,1.246,0,1.9,0V265.41c-.688,0-1.316.005-1.944,0a1.425,1.425,0,0,1-1.512-1.056c-.131-.334-.263-.67-.409-1a1.471,1.471,0,0,1,.363-1.948c.434-.422.9-.808,1.43-1.272Zm-11.03,30.975a5.534,5.534,0,1,0,5.522,5.55A5.523,5.523,0,0,0,402.646,289.484Z" transform="translate(0 0)" fill="#3970bf"/>
    <path id="Path_8779" data-name="Path 8779" d="M442.143,293.619h.66q3.7,0,7.41,0c1.334,0,1.77.446,1.771,1.793q0,2.6,0,5.192c0,1.126-.491,1.624-1.6,1.626q-3.759.006-7.517,0h-.637v1.63h.593q3.732,0,7.463,0c1.215,0,1.7.489,1.7,1.7q0,2.677,0,5.354a1.392,1.392,0,0,1-1.559,1.569c-.739,0-1.478.008-2.217,0-.582-.008-.929-.335-.914-.835a.811.811,0,0,1,.913-.783c.7-.01,1.4,0,2.126,0v-5.349H432.419v5.349H443.8c.126,0,.253,0,.378,0,.585.017.935.332.925.828a.811.811,0,0,1-.9.792c-.647.01-1.295,0-1.979,0v1.627h.6q3.759,0,7.517,0c1.145,0,1.645.5,1.646,1.645q0,2.7,0,5.408a1.4,1.4,0,0,1-1.56,1.575q-9.059.007-18.117,0a1.377,1.377,0,0,1-1.535-1.539c0-.4,0-.793,0-1.19s.059-.768-.428-1.034a.718.718,0,0,1,.09-1.191.645.645,0,0,0,.342-.7c-.013-.45-.005-.9,0-1.352.005-1.119.5-1.622,1.609-1.623q3.759,0,7.517,0h.622v-1.627h-.6q-3.758,0-7.517,0c-1.125,0-1.626-.493-1.628-1.6q0-2.732,0-5.463a1.382,1.382,0,0,1,1.566-1.559c2.505-.006,5.011,0,7.517,0h.667v-1.63h-7.991c-1.326,0-1.76-.429-1.761-1.735q0-2.569,0-5.138c0-1.3.442-1.738,1.763-1.74q3.7,0,7.409,0h.614c0-.567-.008-1.085,0-1.6.013-.64.316-.985.832-.975.5.01.77.336.786.958.007.27.006.54,0,.811C442.172,293.06,442.157,293.309,442.143,293.619Zm-9.732,27.465h17.914v-5.308H432.411Zm.008-20.516h17.914v-5.293H432.419Z" transform="translate(-18.497 -12.913)" fill="#3970bf"/>
    <path id="Path_8780" data-name="Path 8780" d="M443.86,318.019c-1.855,0-3.709,0-5.564,0a1.982,1.982,0,0,1-.636-.079.658.658,0,0,1-.486-.841,1.765,1.765,0,0,1,.651-.673c.107-.079.315-.026.477-.026h11.181a3.117,3.117,0,0,1,.485.018.792.792,0,0,1,.147,1.524,2.063,2.063,0,0,1-.637.077C447.605,318.022,445.732,318.019,443.86,318.019Z" transform="translate(-21.014 -21.932)" fill="#3970bf"/>
    <path id="Path_8781" data-name="Path 8781" d="M394.209,285.01c-1.819,0-3.639,0-5.458,0-.643,0-1-.365-.934-.909.055-.455.39-.705.985-.708,1.333-.006,2.666,0,4,0,2.27,0,4.539-.014,6.809.016a1.365,1.365,0,0,1,.884.368.8.8,0,0,1,.055.777,1.11,1.11,0,0,1-.776.439c-1.421.044-2.845.021-4.268.022Z" transform="translate(-3.457 -10.188)" fill="#3970bf"/>
    <path id="Path_8782" data-name="Path 8782" d="M394.262,295.589c1.819,0,3.639-.006,5.458,0,.741,0,1.2.607.839,1.15a1.109,1.109,0,0,1-.783.448c-3.693.03-7.385.024-11.078.016a.794.794,0,0,1-.885-.811c0-.5.327-.8.936-.8C390.588,295.585,392.425,295.589,394.262,295.589Z" transform="translate(-3.458 -14.531)" fill="#3970bf"/>
    <path id="Path_8783" data-name="Path 8783" d="M394.2,303.316c-1.8,0-3.6,0-5.4,0a.892.892,0,0,1-.911-.444.8.8,0,0,1,.7-1.17c.339-.033.684-.011,1.026-.011h9.781a3.757,3.757,0,0,1,.539.015.805.805,0,0,1,.729.857.772.772,0,0,1-.783.743c-.162.009-.325.006-.486.006Z" transform="translate(-3.451 -16.702)" fill="#3970bf"/>
    <path id="Path_8784" data-name="Path 8784" d="M394.276,289.516q2.647,0,5.295,0c.723,0,1.112.294,1.1.814-.01.5-.4.805-1.073.806q-5.375.006-10.752,0c-.7,0-1.07-.33-1.032-.884.034-.473.35-.731.949-.734C390.6,289.513,392.439,289.517,394.276,289.516Z" transform="translate(-3.458 -12.37)" fill="#3970bf"/>
    <path id="Path_8785" data-name="Path 8785" d="M391.142,307.825c.793,0,1.586-.008,2.379,0,.615.008.935.3.928.811a.793.793,0,0,1-.895.8q-2.432.022-4.865,0a.785.785,0,0,1-.874-.82c0-.489.316-.78.895-.789C389.52,307.815,390.331,307.825,391.142,307.825Z" transform="translate(-3.459 -18.886)" fill="#3970bf"/>
    <path id="Path_8786" data-name="Path 8786" d="M402.189,332.281a.815.815,0,0,1-1.022.9,2.13,2.13,0,0,1-1.43-1.49.721.721,0,0,1,.41-.9.778.778,0,0,1,.976.193c.268.278.548.546.8.839A2.524,2.524,0,0,1,402.189,332.281Z" transform="translate(-7.69 -27.028)" fill="#3970bf"/>
    <path id="Path_8787" data-name="Path 8787" d="M447.889,274.285c-.1.643-.381,1.013-.861,1.048s-.783-.29-.88-.882a2.6,2.6,0,0,0-.24-.695.811.811,0,0,1,.23-1.1.758.758,0,0,1,1.092.195A11.807,11.807,0,0,1,447.889,274.285Z" transform="translate(-24.096 -6.318)" fill="#3970bf"/>
    <path id="Path_8788" data-name="Path 8788" d="M447.962,280.081a6.5,6.5,0,0,1-.005.752.718.718,0,0,1-.723.669.7.7,0,0,1-.819-.611,8.02,8.02,0,0,1,0-1.658.692.692,0,0,1,.814-.614.722.722,0,0,1,.737.71c.025.248,0,.5,0,.752Z" transform="translate(-24.301 -8.49)" fill="#3970bf"/>
    <path id="Path_8789" data-name="Path 8789" d="M447.967,286.289a6.1,6.1,0,0,1-.005.752.724.724,0,0,1-.772.676.684.684,0,0,1-.77-.606,8.437,8.437,0,0,1,.01-1.711.676.676,0,0,1,.794-.568.708.708,0,0,1,.733.652,6.1,6.1,0,0,1,.007.805Z" transform="translate(-24.305 -10.702)" fill="#3970bf"/>
    <path id="Path_8790" data-name="Path 8790" d="M399.552,325.954a5.865,5.865,0,0,1,.006-.752.726.726,0,0,1,.766-.682.7.7,0,0,1,.787.653,8.49,8.49,0,0,1,.008,1.557.722.722,0,0,1-.818.686.735.735,0,0,1-.748-.708,7.158,7.158,0,0,1,0-.753Z" transform="translate(-7.632 -24.829)" fill="#3970bf"/>
    <path id="Path_8791" data-name="Path 8791" d="M406.674,333.9a6.221,6.221,0,0,1-.752-.006.713.713,0,0,1-.667-.721.694.694,0,0,1,.6-.822,7.829,7.829,0,0,1,1.657,0,.694.694,0,0,1,.618.812.724.724,0,0,1-.708.741c-.249.024-.5,0-.752,0Z" transform="translate(-9.666 -27.601)" fill="#3970bf"/>
    <path id="Path_8792" data-name="Path 8792" d="M412.951,333.9a7.147,7.147,0,0,1-.806-.006.711.711,0,0,1-.674-.715.692.692,0,0,1,.6-.826,7.793,7.793,0,0,1,1.658-.008.7.7,0,0,1,.624.807.724.724,0,0,1-.7.747,6.641,6.641,0,0,1-.7,0Z" transform="translate(-11.878 -27.602)" fill="#3970bf"/>
    <path id="Path_8793" data-name="Path 8793" d="M419.076,333.907a6.318,6.318,0,0,1-.7,0,.717.717,0,0,1-.69-.7.687.687,0,0,1,.577-.838,7.579,7.579,0,0,1,1.709,0,.688.688,0,0,1,.588.831.714.714,0,0,1-.68.709A7.631,7.631,0,0,1,419.076,333.907Z" transform="translate(-14.09 -27.604)" fill="#3970bf"/>
    <path id="Path_8794" data-name="Path 8794" d="M425.3,333.907c-.233,0-.468.019-.7,0a.724.724,0,0,1-.705-.743.694.694,0,0,1,.619-.81,7.882,7.882,0,0,1,1.658.005.693.693,0,0,1,.6.823.712.712,0,0,1-.669.719,6.852,6.852,0,0,1-.806.006Z" transform="translate(-16.302 -27.602)" fill="#3970bf"/>
    <path id="Path_8795" data-name="Path 8795" d="M419.83,275.522a5.451,5.451,0,0,1-4.807-3.435,5.366,5.366,0,0,1,.942-6.045,5.479,5.479,0,0,1,5.978-1.7c.719.2.976.573.823,1.095s-.582.662-1.286.454a4.1,4.1,0,1,0-2.43,7.827,3.884,3.884,0,0,0,4.121-1.049,3.944,3.944,0,0,0,.964-4.193c-.264-.842-.166-1.257.388-1.431.522-.165.874.116,1.15.918C426.95,271.669,424.152,275.543,419.83,275.522Z" transform="translate(-12.953 -3.313)" fill="#3970bf"/>
    <path id="Path_8796" data-name="Path 8796" d="M424.562,271.593a2.507,2.507,0,1,1-2.481-2.522A2.49,2.49,0,0,1,424.562,271.593Zm-2.5-.9a.882.882,0,1,0,.873.892A.863.863,0,0,0,422.063,270.7Z" transform="translate(-14.754 -5.093)" fill="#3970bf"/>
    <path id="Path_8797" data-name="Path 8797" d="M413.7,316.684c.864-.865,1.639-1.64,2.415-2.415a3.434,3.434,0,0,1,.392-.372.765.765,0,0,1,1.077.057.713.713,0,0,1,.044,1.068q-1.654,1.709-3.36,3.366a.718.718,0,0,1-1.072-.015q-1.263-1.221-2.485-2.483a.785.785,0,0,1-.019-1.119.777.777,0,0,1,1.157-.012c.322.288.622.6.921.913S413.357,316.308,413.7,316.684Z" transform="translate(-11.522 -20.98)" fill="#3970bf"/>
    <path id="Path_8798" data-name="Path 8798" d="M443.884,333.915q-2.755,0-5.509,0a3.478,3.478,0,0,1-.592-.029.718.718,0,0,1-.631-.7.727.727,0,0,1,.548-.823,2.334,2.334,0,0,1,.64-.062q5.563-.006,11.126,0a2.478,2.478,0,0,1,.536.037.733.733,0,0,1,.631.815.724.724,0,0,1-.7.75,6.865,6.865,0,0,1-.755.018Q446.531,333.917,443.884,333.915Z" transform="translate(-21.019 -27.596)" fill="#3970bf"/>
    <path id="Path_8799" data-name="Path 8799" d="M443.879,300.485q2.862,0,5.726,0c.678,0,1.039.293,1.03.821-.008.5-.367.8-1.008.8q-5.727,0-11.454,0c-.666,0-1.046-.314-1.036-.831.01-.5.372-.788,1.014-.789Q441.016,300.481,443.879,300.485Z" transform="translate(-21.015 -16.274)" fill="#3970bf"/>
  </g>
</svg>
