<svg xmlns="http://www.w3.org/2000/svg" width="30.67" height="28.536" viewBox="0 0 30.67 28.536">
  <g id="product" transform="translate(-519.111 -273.882)">
    <path id="Path_8800" data-name="Path 8800" d="M537.552,298.017c-2,1.152-3.936,2.259-5.86,3.388a.841.841,0,0,1-.966.007q-5.574-3.241-11.166-6.45a.773.773,0,0,1-.448-.761q.017-6.5,0-13a.687.687,0,0,1,.384-.673q5.642-3.246,11.274-6.511a.754.754,0,0,1,.858,0q5.617,3.26,11.246,6.5a.682.682,0,0,1,.392.669c-.014,1.271-.006,2.542-.006,3.853.511,0,1,.006,1.5,0a1.549,1.549,0,0,1,1.558.958.335.335,0,0,0,.248.153c.444.016.889,0,1.334.009a1.857,1.857,0,0,1,1.877,1.87q.011,6.268,0,12.537a1.827,1.827,0,0,1-1.855,1.85q-4.252.011-8.5,0a1.827,1.827,0,0,1-1.865-1.869c-.006-.734,0-1.469,0-2.2Zm-6.779,2.391c.006-.105.013-.165.013-.224q0-5.988.006-11.976a.384.384,0,0,0-.243-.375q-5.145-2.958-10.286-5.923c-.077-.044-.16-.079-.275-.136v.34q0,5.879-.007,11.758a.5.5,0,0,0,.3.5q5,2.868,9.992,5.752C530.429,300.214,530.587,300.3,530.773,300.408Zm7.648-6.124q0,3.1,0,6.2a.965.965,0,0,0,1,1.056q4.234.007,8.468,0a.966.966,0,0,0,1.016-1.016q.005-6.235,0-12.469a.993.993,0,0,0-1.037-1.035c-.424-.006-.848.008-1.272-.006a.322.322,0,0,0-.346.222,1.409,1.409,0,0,1-1.313.833c-.858.014-1.716.009-2.574,0a1.178,1.178,0,0,1-1.111-.565c-.25-.517-.628-.518-1.075-.489-.206.013-.413,0-.62,0a1.014,1.014,0,0,0-1.137,1.151Q538.42,291.229,538.421,294.285Zm3.962-12.514c-.09.047-.135.069-.179.094q-5.174,3-10.351,5.989a.383.383,0,0,0-.2.4q.005,5.924,0,11.848c0,.088.009.176.015.3.127-.066.227-.114.323-.17,1.762-1.018,3.52-2.042,5.286-3.051a.476.476,0,0,0,.278-.483q-.013-4.311,0-8.622a1.856,1.856,0,0,1,1.919-1.917c.486,0,.971,0,1.468,0a1.6,1.6,0,0,1,1.443-1.132Zm-.434-.765a1.489,1.489,0,0,0-.121-.09c-1.583-.916-3.168-1.827-4.746-2.751-.177-.1-.287-.025-.419.05l-10.2,5.89c-.095.055-.186.116-.308.193.127.078.219.137.314.192,1.494.864,2.989,1.724,4.479,2.595a.43.43,0,0,0,.5,0q5.095-2.952,10.2-5.892C541.743,281.137,541.834,281.077,541.949,281.006ZM520.434,281c.147.089.242.148.339.2,1.4.811,2.812,1.617,4.211,2.438a.474.474,0,0,0,.555,0q4.718-2.738,9.445-5.46c.338-.195.674-.393,1.039-.605-.107-.07-.18-.122-.258-.167-1.431-.827-2.867-1.647-4.291-2.486a.474.474,0,0,0-.556.011q-3.579,2.077-7.165,4.141Zm23.238,6.213c.4,0,.806.006,1.208,0a.65.65,0,1,0,0-1.3q-1.208-.01-2.417,0a.651.651,0,1,0,0,1.3C542.867,287.214,543.27,287.209,543.673,287.209Z" transform="translate(0 0)" fill="#f3f6f9"/>
    <path id="Path_8801" data-name="Path 8801" d="M578.973,330.132c0,.32.005.64,0,.96a.442.442,0,0,1-.495.5q-.96.009-1.92,0a.44.44,0,0,1-.5-.495q-.009-.96,0-1.92a.44.44,0,0,1,.494-.5q.96-.009,1.92,0a.442.442,0,0,1,.5.494C578.978,329.492,578.973,329.812,578.973,330.132Zm-.884-.567h-1.141v1.144h1.141Z" transform="translate(-36.58 -35.198)" fill="#f3f6f9"/>
    <path id="Path_8802" data-name="Path 8802" d="M577.3,341.956c.071.219.158.454-.066.625a1,1,0,0,1-.919.072c-.249-.07-.257-.314-.255-.541.005-.589,0-1.178,0-1.766,0-.4.158-.557.566-.559.6,0,1.2,0,1.8,0,.255,0,.483.077.524.333.047.293.14.628-.146.87-.255.215-.537.086-.732-.318h-1.124v1.146l.3.09Z" transform="translate(-36.581 -42.335)" fill="#f3f6f9"/>
    <path id="Path_8803" data-name="Path 8803" d="M576.938,318.44v1.147a1.487,1.487,0,0,1,.251.117.411.411,0,0,1,.148.522c-.094.247-.473.35-.916.253a.433.433,0,0,1-.363-.47c0-.65,0-1.3,0-1.952a.432.432,0,0,1,.477-.484c.65-.007,1.3,0,1.952,0a.418.418,0,0,1,.462.331c.047.257.11.563-.165.734-.117.073-.388.1-.447.031-.262-.311-.593-.212-.908-.225C577.279,318.435,577.125,318.44,576.938,318.44Z" transform="translate(-36.583 -28.065)" fill="#f3f6f9"/>
    <path id="Path_8804" data-name="Path 8804" d="M580.168,320.163c.451-.459.851-.875,1.262-1.281a.435.435,0,0,1,.677,0,.411.411,0,0,1-.043.587q-.771.784-1.554,1.554a.417.417,0,0,1-.634,0c-.233-.219-.462-.443-.678-.679a.429.429,0,0,1,.606-.608A4.714,4.714,0,0,1,580.168,320.163Z" transform="translate(-38.511 -28.805)" fill="#f3f6f9"/>
    <path id="Path_8805" data-name="Path 8805" d="M579.233,342.837l-.055-.053c-.128-.239-.181-.493.08-.658.479-.3.644.228.976.411.392-.4.785-.807,1.188-1.205a.439.439,0,0,1,.716.014.4.4,0,0,1-.049.537q-.78.794-1.575,1.575a.418.418,0,0,1-.633-.006C579.661,343.25,579.448,343.042,579.233,342.837Z" transform="translate(-38.519 -43.216)" fill="#f3f6f9"/>
    <path id="Path_8806" data-name="Path 8806" d="M591.223,320.522c.412,0,.825,0,1.237,0,.349,0,.559.172.553.441s-.207.425-.537.426q-1.268,0-2.536,0c-.33,0-.522-.172-.518-.441s.2-.423.532-.426C590.377,320.52,590.8,320.522,591.223,320.522Z" transform="translate(-45.168 -29.961)" fill="#f3f6f9"/>
    <path id="Path_8807" data-name="Path 8807" d="M591.192,332.5c-.412,0-.825,0-1.237,0-.337,0-.528-.159-.533-.426s.187-.439.518-.441q1.268-.005,2.536,0c.33,0,.532.166.537.426s-.2.439-.553.441C592.037,332.5,591.615,332.5,591.192,332.5Z" transform="translate(-45.168 -37.096)" fill="#f3f6f9"/>
    <path id="Path_8808" data-name="Path 8808" d="M591.19,343.605c-.423,0-.845,0-1.268,0-.31,0-.5-.17-.5-.428a.434.434,0,0,1,.489-.438q1.3-.008,2.6,0a.437.437,0,1,1,.011.865C592.076,343.61,591.633,343.605,591.19,343.605Z" transform="translate(-45.168 -44.232)" fill="#f3f6f9"/>
  </g>
</svg>
