<svg xmlns="http://www.w3.org/2000/svg" width="51.822" height="55.072" viewBox="0 0 51.822 55.072">
  <g id="progressreports" transform="translate(-648.295 -508.388)">
    <path id="Path_8824" data-name="Path 8824" d="M685.716,508.388c.027.023.049.057.08.068a2.893,2.893,0,0,1,2.237,3.128q.005,5.593,0,11.186v24.3l.147.092a1.772,1.772,0,0,0,.373-.432c.178-.447.264-.938.478-1.365a1.028,1.028,0,0,1,.638-.507,15.253,15.253,0,0,1,1.716-.089.705.705,0,0,1,.776.524,4.8,4.8,0,0,1,.2.554,1.671,1.671,0,0,0,1.348,1.447,1.168,1.168,0,0,0,.9-.042c1.879-.94,1.342-1.054,2.908.423.71.669.7.675.3,1.555a1.494,1.494,0,0,1-.159.339c-.625.767-.1,1.441.175,2.129.036.092.184.156.293.2.25.1.507.174.763.255,1.174.374,1.18.373,1.205,1.627.035,1.74.2,1.461-1.417,2.069-.247.093-.583.159-.7.347a3.188,3.188,0,0,0-.5,1.287c-.03.29.242.616.4.917.659,1.285.625,1.127-.311,2.094-1.159,1.2-.87,1.229-2.361.441-.839-.444-1.389.034-2.035.276-.129.049-.188.322-.251.5-.684,1.954-.218,1.7-2.379,1.743-.964.021-.964.013-1.3-.9a5.082,5.082,0,0,1-.219-.606.955.955,0,0,0-.975-.841.293.293,0,0,0-.073.091,2.916,2.916,0,0,1-3.219,2.264H651.568a2.934,2.934,0,0,1-3.273-3.289V511.93c0-2.074.472-2.784,2.356-3.542Zm1.175,39.134v-35.8c0-1.591-.585-2.181-2.162-2.181-11.041,0-22.083.015-33.123-.019a1.943,1.943,0,0,0-2.167,2.147q.044,20.864.018,41.727c0,2.348-.021,4.7.02,7.044a2.538,2.538,0,0,0,.435,1.274,1.715,1.715,0,0,0,1.587.591q16.643-.009,33.285-.005a5.149,5.149,0,0,0,.644-.025,1.448,1.448,0,0,0,1.261-1.143c-.28.138-.519.241-.742.369a.8.8,0,0,1-1.106-.152,12.843,12.843,0,0,0-1.048-1,.79.79,0,0,1-.2-1.095,10.424,10.424,0,0,0,.534-1.171,1.006,1.006,0,0,0,0-.546,1.811,1.811,0,0,0-1.686-1.5,2.914,2.914,0,0,1-.411-.123.705.705,0,0,1-.575-.738c-.007-.573-.022-1.147-.042-1.72a.685.685,0,0,1,.512-.727c.439-.157.881-.3,1.309-.484a.813.813,0,0,0,.389-.318,1.835,1.835,0,0,0-.046-2.259,2.944,2.944,0,0,1-.248-.475.7.7,0,0,1,.127-.925c.391-.395.778-.793,1.153-1.2a.7.7,0,0,1,.917-.158C685.949,547.105,686.374,547.288,686.891,547.522Zm4.29-1.553c-1.132-.108-1.133-.108-1.454.887-.055.17-.113.34-.157.513a.892.892,0,0,1-.74.751,1.157,1.157,0,0,0-.5.189,2.047,2.047,0,0,1-2.6-.052c-.331-.21-.536-.128-.82.132a.737.737,0,0,0-.14,1.1,2.151,2.151,0,0,1,.278,2.121,2.771,2.771,0,0,1-2.145,2,.541.541,0,0,0-.3.4c-.069.845-.063.878.75,1.1a2.358,2.358,0,0,1,1.64,1.375,2.572,2.572,0,0,1-.123,2.776.548.548,0,0,0-.064.438.894.894,0,0,0,1.332.418,3.518,3.518,0,0,0,.381-.2,1.865,1.865,0,0,1,1.694-.081A2.586,2.586,0,0,1,690.257,562a.447.447,0,0,0,.261.28.854.854,0,0,0,1.221-.666c.088-.272.192-.541.263-.817a.841.841,0,0,1,.677-.676,1.386,1.386,0,0,0,.55-.2,2.033,2.033,0,0,1,2.56.059.581.581,0,0,0,.832-.125c.361-.357.472-.66.158-1.091a1.855,1.855,0,0,1-.129-2.363c.128-.181.111-.463.234-.651a1.867,1.867,0,0,1,.6-.659,12.053,12.053,0,0,1,1.43-.553c.094-1.146.105-1.192-.937-1.46a2.058,2.058,0,0,1-1.4-1.269,2.562,2.562,0,0,1,.087-2.83.544.544,0,0,0,.03-.475c-.39-.624-.685-.687-1.343-.349a2.508,2.508,0,0,0-.334.172,1.359,1.359,0,0,1-1.682.059c-.3-.185-.685-.213-1-.379a1.4,1.4,0,0,1-.587-.544A15.764,15.764,0,0,1,691.181,545.97Z" transform="translate(0)" fill="#3a72c2"/>
    <path id="Path_8825" data-name="Path 8825" d="M681.175,550.139c-.807,0-1.541-.006-2.276,0-.417,0-.787-.078-.787-.58,0-.474.357-.559.751-.558,1.2,0,2.4,0,3.6,0,.591,0,.776.186.779.772.008,1.2,0,2.4,0,3.6,0,.4-.115.738-.584.737s-.58-.335-.578-.739c0-.751,0-1.5,0-2.349-.157.126-.265.2-.354.285q-3.346,3.342-6.7,6.683a.636.636,0,0,0-.189.783,2.1,2.1,0,0,1-.809,2.418,2.194,2.194,0,0,1-2.474-.019,2.087,2.087,0,0,1-.771-2.429.6.6,0,0,0-.19-.735q-2.2-2.174-4.367-4.375a.634.634,0,0,0-.689-.185,3.85,3.85,0,0,1-1.411,0,.6.6,0,0,0-.646.164q-2.344,2.369-4.712,4.713a.559.559,0,0,0-.161.694,2.084,2.084,0,0,1-.887,2.522,2.156,2.156,0,0,1-2.967-2.975,2.1,2.1,0,0,1,2.526-.881.552.552,0,0,0,.69-.167q2.346-2.365,4.714-4.711a.528.528,0,0,0,.15-.649,2.111,2.111,0,0,1,.73-2.446,2.151,2.151,0,0,1,2.514-.035,2.106,2.106,0,0,1,.784,2.472.568.568,0,0,0,.184.693q2.211,2.2,4.4,4.416a.611.611,0,0,0,.644.163,9.94,9.94,0,0,1,1.468-.012c.171,0,.4.016.5-.082q3.514-3.48,7-6.988A1.1,1.1,0,0,0,681.175,550.139Zm-24.6,8.576a.972.972,0,0,0-.984.985,1,1,0,1,0,.984-.985Zm9.274-7.28a.99.99,0,0,0-.988-.988,1,1,0,0,0-1.017,1.021,1.027,1.027,0,0,0,1,1A1,1,0,0,0,665.852,551.435Zm7.959,7.994a1,1,0,0,0-1.018-1.017,1.011,1.011,0,0,0,.038,2.022A1.007,1.007,0,0,0,673.812,559.43Z" transform="translate(-0.667 -4.414)" fill="#3a72c2"/>
    <path id="Path_8826" data-name="Path 8826" d="M659.2,515.129a5.483,5.483,0,1,1-5.488,5.445A5.475,5.475,0,0,1,659.2,515.129Zm4.269,6.042c-1.384,0-2.725,0-4.065,0-.6,0-.762-.16-.767-.764-.007-.788,0-1.575,0-2.363V516.35a4.251,4.251,0,0,0-3.762,4.257,4.316,4.316,0,0,0,8.6.564Zm-.012-1.187c-.21-1.9-2.105-3.745-3.658-3.591v3.627c1.1,0,2.173,0,3.242,0C663.185,520.018,663.323,520,663.462,519.984Z" transform="translate(-0.589 -0.733)" fill="#3a72c2"/>
    <path id="Path_8827" data-name="Path 8827" d="M668.769,542.667h13.973c.161,0,.36-.057.476.016.217.137.5.324.549.538.079.336-.188.552-.537.6a3.283,3.283,0,0,1-.43.01H654.746c-.108,0-.215,0-.323,0-.388-.006-.692-.159-.692-.579s.292-.581.687-.58h14.349Z" transform="translate(-0.591 -3.723)" fill="#3a72c2"/>
    <path id="Path_8828" data-name="Path 8828" d="M668.718,538.306H654.8c-.161,0-.323,0-.484,0a.543.543,0,0,1-.586-.565c-.005-.365.235-.541.585-.569.143-.011.287-.006.43-.006h28c.09,0,.179,0,.269,0,.422-.01.788.107.771.6-.017.455-.366.547-.769.546q-5.293-.008-10.586,0Z" transform="translate(-0.591 -3.127)" fill="#3a72c2"/>
    <path id="Path_8829" data-name="Path 8829" d="M668.743,531.661h14.037c.179,0,.393-.054.529.024.193.111.462.329.455.491a.965.965,0,0,1-.424.575c-.12.089-.346.044-.525.045H654.688c-.143,0-.327.045-.421-.025-.2-.153-.5-.37-.5-.557s.306-.4.519-.537c.114-.074.314-.016.475-.016Z" transform="translate(-0.595 -2.527)" fill="#3a72c2"/>
    <path id="Path_8830" data-name="Path 8830" d="M677.619,526.13q3.465,0,6.931,0c.178,0,.4-.048.526.037.185.126.415.349.418.535s-.224.412-.406.54c-.124.087-.346.045-.524.045q-6.984,0-13.969,0a2.923,2.923,0,0,1-.375-.007c-.344-.045-.625-.242-.545-.587.051-.216.328-.4.538-.549.1-.068.279-.016.422-.016Z" transform="translate(-2.322 -1.926)" fill="#3a72c2"/>
    <path id="Path_8831" data-name="Path 8831" d="M677.589,521.768c-2.382,0-4.763.009-7.144-.014a.991.991,0,0,1-.717-.318c-.221-.311-.062-.628.307-.758a1.78,1.78,0,0,1,.582-.059q6.956,0,13.913,0c.089,0,.179,0,.268,0,.406.01.734.157.71.614-.021.419-.329.54-.722.539C682.387,521.764,679.989,521.768,677.589,521.768Z" transform="translate(-2.319 -1.329)" fill="#3a72c2"/>
    <path id="Path_8832" data-name="Path 8832" d="M677.552,516.253h-6.927c-.179,0-.4.047-.526-.037-.184-.121-.414-.343-.414-.523s.224-.409.406-.534c.125-.086.347-.036.526-.036h13.962c.16,0,.367-.051.472.029.191.143.427.359.444.561.012.161-.246.39-.434.507-.132.082-.348.034-.527.034Z" transform="translate(-2.325 -0.73)" fill="#3a72c2"/>
    <path id="Path_8833" data-name="Path 8833" d="M699.464,559.223a3.995,3.995,0,1,1-3.97-4.011A3.973,3.973,0,0,1,699.464,559.223Zm-4-2.854a2.829,2.829,0,0,0-2.851,2.821,2.858,2.858,0,1,0,5.716.048A2.846,2.846,0,0,0,695.468,556.369Z" transform="translate(-4.693 -5.089)" fill="#3a72c2"/>
  </g>
</svg>
